<svg width="180" height="25" viewBox="0 0 180 25" fill="none" xmlns="http://www.w3.org/2000/svg">
<path d="M45.6612 23.4871C45.6727 23.4391 45.6861 23.3892 45.6976 23.3393C45.7418 23.1607 45.784 22.9841 45.8281 22.8018C45.8358 22.7653 45.8435 22.7269 45.8531 22.6886C45.8992 22.4928 45.9433 22.297 45.9875 22.0993C45.9913 22.0762 45.9951 22.0513 46.0009 22.0302C46.0834 21.6386 46.1583 21.2432 46.2236 20.8459C46.3445 21.7231 46.4097 22.6079 46.4097 23.4871H45.6612ZM44.9375 21.7941C44.9318 21.819 44.926 21.844 44.9222 21.8689C44.9164 21.8901 44.9126 21.9112 44.9068 21.9323C44.0834 19.4331 42.9413 17.0089 41.6725 14.7439C41.9316 14.7976 42.1946 14.8552 42.4537 14.9205C43.1217 15.0894 43.7686 15.3121 44.2868 15.6153C44.5997 15.7996 44.8607 16.0127 45.0661 16.2545C45.0891 16.3409 45.1083 16.4273 45.1295 16.5117C45.2792 17.1471 45.3464 17.7978 45.3464 18.4638C45.3483 19.5541 45.1736 20.6789 44.9375 21.7941ZM42.3981 23.4928C40.7281 23.4928 39.0601 23.5062 37.3921 23.5101C38.7031 20.8631 39.849 18.149 40.755 15.3332C42.1946 17.911 43.4557 20.6827 44.2465 23.5024C43.6304 23.4966 43.0142 23.4928 42.3981 23.4928ZM36.5111 22.8364C34.9083 19.6558 33.1386 16.5712 31.2114 13.5711C34.1405 13.6959 37.037 13.9416 39.8989 14.4118C39.0064 17.3102 37.8528 20.105 36.5111 22.8364ZM26.4108 23.5005H24.9463C26.7602 20.3814 28.5415 17.245 30.2325 14.0625C32.2019 17.1202 34.0023 20.2643 35.63 23.5101C32.5646 23.5043 29.4935 23.5005 26.4108 23.5005ZM24 22.9438C23.9981 22.9477 23.9962 22.9496 23.9942 22.9534C22.1765 19.8266 20.3972 16.6902 18.71 13.5135C19.9307 13.4886 21.1515 13.4694 22.3742 13.4694C22.9155 13.4694 23.4587 13.4732 24 13.479C24.5413 13.4732 25.0845 13.4694 25.6258 13.4694C26.8485 13.4694 28.0693 13.4886 29.29 13.5135C27.6028 16.6902 25.8235 19.8266 24.0058 22.9534C24.0038 22.9496 24.0019 22.9477 24 22.9438ZM21.5891 23.5005C18.5065 23.5005 15.4354 23.5043 12.37 23.5101C13.9977 20.2643 15.7981 17.1202 17.7675 14.0625C19.4585 17.245 21.2398 20.3814 23.0537 23.5005H21.5891ZM11.4889 22.8364C10.1472 20.105 8.99363 17.3102 8.10108 14.4118C10.963 13.9416 13.8595 13.6959 16.7886 13.5711C14.8614 16.5712 13.0917 19.6558 11.4889 22.8364ZM5.60194 23.4928C4.98579 23.4928 4.36964 23.4966 3.75349 23.5024C4.54431 20.6827 5.8054 17.911 7.245 15.3332C8.15098 18.149 9.29691 20.8631 10.6079 23.5101C8.93989 23.5062 7.27187 23.4928 5.60194 23.4928ZM3.07784 21.8689C3.074 21.844 3.06824 21.819 3.06248 21.7941C2.82639 20.6789 2.65172 19.5541 2.65364 18.4638C2.65364 17.7978 2.72082 17.1471 2.87054 16.5117C2.89165 16.4273 2.91085 16.3409 2.93388 16.2545C3.13926 16.0127 3.40031 15.7996 3.71318 15.6153C4.23144 15.3121 4.8783 15.0894 5.54627 14.9205C5.8054 14.8552 6.06837 14.7976 6.32749 14.7439C5.05873 17.0089 3.91665 19.4331 3.0932 21.9323C3.08744 21.9112 3.0836 21.8901 3.07784 21.8689ZM1.59026 23.4871C1.59026 22.6079 1.65552 21.7231 1.77644 20.8459C1.84171 21.2432 1.91657 21.6386 1.9991 22.0302C2.00486 22.0513 2.0087 22.0762 2.01254 22.0993C2.05669 22.297 2.10083 22.4928 2.1469 22.6886C2.1565 22.7269 2.16418 22.7653 2.17186 22.8018C2.216 22.9841 2.25823 23.1607 2.30238 23.3393C2.31389 23.3892 2.32733 23.4391 2.33885 23.4871H1.59026ZM6.19121 10.212V10.2255C6.19121 10.9203 6.29294 11.6171 6.42539 12.2774C6.51752 12.7246 6.62309 13.1527 6.72482 13.5519C6.05685 13.6824 5.29674 13.8341 4.55391 14.0721C4.26599 14.1661 3.98191 14.2736 3.7055 14.4003C4.39267 12.9262 5.22188 11.5077 6.19121 10.212ZM7.66344 8.47108C8.5368 7.73977 9.57139 7.1908 10.6808 6.77044C11.2471 6.55546 11.8325 6.37503 12.4237 6.22147C10.6002 8.16013 9.00131 10.3291 7.60586 12.5749C7.56747 12.406 7.52908 12.2332 7.49453 12.0605C7.36784 11.4424 7.27955 10.8128 7.27955 10.2255C7.27955 9.56134 7.39472 8.96247 7.66344 8.47108ZM13.1512 4.16765C13.1819 4.30585 13.2184 4.44213 13.2606 4.57073C13.2951 4.67822 13.3355 4.77803 13.3738 4.87977C12.5907 5.04484 11.7941 5.24447 11.011 5.50167C11.6943 5.01413 12.4122 4.5669 13.1512 4.16765ZM13.9343 6.22723C14.8538 8.35399 15.8749 10.4251 16.9345 12.4751C14.0956 12.5903 11.274 12.8148 8.47154 13.2486C10.0321 10.7226 11.8479 8.30217 13.9343 6.22723ZM16.1724 2.81442C15.5217 3.29429 14.9094 3.81255 14.3336 4.3404C14.3201 4.30585 14.3086 4.26938 14.2971 4.23483C14.2299 4.03136 14.1839 3.8375 14.1666 3.65899C14.8211 3.34612 15.491 3.06396 16.1724 2.81442ZM20.925 1.70305C21.1534 1.80286 21.3991 1.9545 21.6487 2.15605C22.0959 2.51307 22.5508 3.00829 22.9654 3.51119C23.1036 3.67818 23.236 3.84326 23.3647 4.00833C23.0134 4.00065 22.6602 3.99681 22.3051 3.99681C20.1611 3.99681 18.0055 4.12158 15.8826 4.42869C16.42 3.97954 16.9824 3.5515 17.566 3.17336C18.6236 2.48428 19.7484 1.95834 20.925 1.70305ZM23.5796 1.53798C23.7198 1.53798 23.8599 1.5399 24 1.54182C24.1401 1.5399 24.2802 1.53798 24.4204 1.53798C24.739 1.53798 25.0557 1.54758 25.3724 1.55909C25.121 1.78751 24.881 2.0332 24.6526 2.28465C24.4223 2.53994 24.2035 2.80099 24 3.05627C23.7965 2.80099 23.5777 2.53994 23.3474 2.28465C23.119 2.0332 22.879 1.78751 22.6276 1.55909C22.9443 1.54758 23.261 1.53798 23.5796 1.53798ZM26.3513 2.15605C26.6009 1.9545 26.8466 1.80286 27.075 1.70305C28.2516 1.95834 29.3764 2.48428 30.434 3.17336C31.0176 3.5515 31.58 3.97954 32.1174 4.42869C29.9945 4.12158 27.8389 3.99681 25.6949 3.99681C25.3398 3.99681 24.9866 4.00065 24.6353 4.00833C24.7639 3.84326 24.8964 3.67818 25.0346 3.51119C25.4492 3.00829 25.9041 2.51307 26.3513 2.15605ZM33.8334 3.65899C33.8161 3.8375 33.7701 4.03136 33.7029 4.23483C33.6914 4.26938 33.6799 4.30585 33.6664 4.3404C33.0906 3.81255 32.4783 3.29429 31.8276 2.81442C32.509 3.06396 33.1789 3.34612 33.8334 3.65899ZM24.7793 5.09474C25.0845 5.09091 25.3897 5.08707 25.6949 5.08707C28.1902 5.08707 30.6855 5.2579 33.1079 5.69554C32.2038 7.80119 31.1884 9.8627 30.1288 11.9127C28.528 9.51335 26.8082 7.18888 24.7793 5.09474ZM17.8711 11.9127C16.8116 9.8627 15.7962 7.80119 14.8921 5.69554C17.3145 5.2579 19.8098 5.08707 22.3051 5.08707C22.6103 5.08707 22.9155 5.09091 23.2207 5.09474C21.1918 7.18888 19.472 9.51335 17.8711 11.9127ZM24 12.3887C23.4568 12.3829 22.9155 12.3791 22.3742 12.3791C21.1937 12.3791 20.0171 12.3964 18.8424 12.4213C20.4048 10.0892 22.0671 7.8607 24 5.86637C25.9329 7.8607 27.5952 10.0892 29.1576 12.4213C27.9829 12.3964 26.8063 12.3791 25.6258 12.3791C25.0845 12.3791 24.5432 12.3829 24 12.3887ZM39.5285 13.2486C36.726 12.8148 33.9044 12.5903 31.0655 12.4751C32.1251 10.4251 33.1462 8.35399 34.0657 6.22723C36.1521 8.30217 37.9679 10.7226 39.5285 13.2486ZM34.7394 4.57073C34.7816 4.44213 34.8181 4.30585 34.8488 4.16765C35.5878 4.5669 36.3057 5.01413 36.989 5.50167C36.2059 5.24447 35.4093 5.04484 34.6262 4.87977C34.6645 4.77803 34.7048 4.67822 34.7394 4.57073ZM40.3366 8.47108C40.6053 8.96247 40.7205 9.56134 40.7205 10.2255C40.7205 10.8128 40.6322 11.4424 40.5055 12.0605C40.4709 12.2332 40.4325 12.406 40.3941 12.5749C38.9987 10.3291 37.3998 8.16013 35.5763 6.22147C36.1675 6.37503 36.7529 6.55546 37.3192 6.77044C38.4286 7.1908 39.4632 7.73977 40.3366 8.47108ZM41.5746 12.2774C41.7071 11.6171 41.8088 10.9203 41.8088 10.2255V10.212C42.7781 11.5077 43.6073 12.9262 44.2945 14.4003C44.0181 14.2736 43.734 14.1661 43.4461 14.0721C42.7033 13.8341 41.9431 13.6824 41.2752 13.5519C41.3769 13.1527 41.4825 12.7246 41.5746 12.2774ZM47.1142 19.5368C46.903 18.3122 46.5902 17.1048 46.166 15.9378C46.166 15.9359 46.166 15.9359 46.166 15.9359C46.166 15.934 46.166 15.934 46.164 15.932L45.9894 15.4579C45.9817 15.4387 45.9721 15.4234 45.9625 15.4061C45.5633 14.0529 44.9202 12.7093 44.1352 11.4559C43.3808 10.2504 42.4998 9.12946 41.5804 8.16781C41.3692 7.92788 41.1581 7.69178 40.9393 7.46144C40.9239 7.44609 40.9066 7.43265 40.8894 7.41922C40.4959 6.9739 40.0678 6.57082 39.6283 6.19268C39.1887 5.81647 38.7396 5.4652 38.3058 5.12162C38.3038 5.1197 38.3038 5.1197 38.3038 5.1197L38.3 5.11778C37.1618 4.23483 35.916 3.45744 34.6204 2.82594C34.6204 2.82594 34.6185 2.82594 34.6185 2.82402C34.6185 2.82402 34.6185 2.82402 34.6166 2.82402C33.0714 2.05816 31.436 1.4516 29.7488 1.04852C28.9714 0.854652 28.1595 0.685736 27.3322 0.612797C27.2957 0.60128 27.2593 0.591686 27.2209 0.587847L26.407 0.49955C26.4032 0.49955 26.3974 0.497629 26.3936 0.497629C26.3878 0.497629 26.384 0.499548 26.3801 0.497629C25.6565 0.434286 24.9194 0.399738 24.1766 0.399738C24.1171 0.399738 24.0595 0.399736 24 0.401655C23.9405 0.399736 23.8829 0.399738 23.8234 0.399738C23.0806 0.399738 22.3435 0.434286 21.6199 0.497629C21.616 0.499548 21.6122 0.497629 21.6064 0.497629C21.6026 0.497629 21.5968 0.49955 21.593 0.49955L20.7791 0.587847C20.7407 0.591686 20.7043 0.60128 20.6678 0.612797C19.8405 0.685736 19.0286 0.854652 18.2512 1.04852C16.564 1.4516 14.9286 2.05816 13.3834 2.82402C13.3815 2.82402 13.3815 2.82402 13.3815 2.82402C13.3815 2.82594 13.3796 2.82594 13.3796 2.82594C12.084 3.45744 10.8382 4.23483 9.69999 5.11778L9.69615 5.1197C9.69615 5.1197 9.69615 5.1197 9.69423 5.12162C9.26043 5.4652 8.81128 5.81647 8.37172 6.19268C7.93217 6.57082 7.50412 6.9739 7.11063 7.41922C7.09336 7.43265 7.07608 7.44609 7.06073 7.46144C6.84191 7.69178 6.63077 7.92788 6.41963 8.16781C5.5002 9.12946 4.61917 10.2504 3.86482 11.4559C3.07976 12.7093 2.43674 14.0529 2.03749 15.4061C2.0279 15.4234 2.0183 15.4387 2.01062 15.4579L1.83595 15.932C1.83403 15.934 1.83403 15.934 1.83403 15.9359C1.83403 15.9359 1.83403 15.9359 1.83403 15.9378C1.40983 17.1048 1.09696 18.3122 0.885814 19.5368C0.634364 20.8478 0.5 22.1837 0.5 23.5158C0.5 23.6924 0.50192 23.8709 0.505759 24.0475L0.521116 24.5773H2.89549C2.89933 24.5773 2.90317 24.5792 2.90893 24.5792C2.91661 24.5831 2.92428 24.585 2.93388 24.5869C2.96843 24.5946 3.0049 24.5984 3.04137 24.5984C3.04329 24.5984 3.04329 24.5984 3.04521 24.5984C3.04713 24.5984 3.04905 24.5984 3.04905 24.5984C3.89937 24.585 4.74969 24.5811 5.60194 24.5811C7.4331 24.5811 9.27195 24.6003 11.1146 24.6003H11.4889C11.4889 24.6003 11.4889 24.6003 11.4909 24.6003C14.8442 24.5946 18.2109 24.5888 21.5891 24.5888C22.3915 24.5888 23.1957 24.5888 24 24.5907C24.8043 24.5888 25.6085 24.5888 26.4108 24.5888C29.7891 24.5888 33.1558 24.5946 36.5091 24.6003C36.5111 24.6003 36.5111 24.6003 36.5111 24.6003H36.8854C38.728 24.6003 40.5669 24.5811 42.3981 24.5811C43.2503 24.5811 44.1006 24.585 44.951 24.5984C44.951 24.5984 44.9529 24.5984 44.9548 24.5984C44.9567 24.5984 44.9567 24.5984 44.9586 24.5984C44.9951 24.5984 45.0316 24.5946 45.0661 24.5869C45.0757 24.585 45.0834 24.5831 45.0911 24.5792C45.0968 24.5792 45.1007 24.5773 45.1045 24.5773H47.4789L47.4942 24.0475C47.4981 23.8709 47.5 23.6924 47.5 23.5158C47.5 22.1837 47.3656 20.8478 47.1142 19.5368Z" fill="#FFCC68"/>
<path d="M66.034 19.27C64.99 19.27 64.072 19.06 63.28 18.64C62.488 18.214 61.87 17.617 61.426 16.849C60.982 16.081 60.76 15.178 60.76 14.14V6.058L63.244 6.04V14.122C63.244 14.548 63.316 14.935 63.46 15.283C63.604 15.631 63.802 15.931 64.054 16.183C64.312 16.435 64.609 16.63 64.945 16.768C65.287 16.9 65.65 16.966 66.034 16.966C66.43 16.966 66.796 16.897 67.132 16.759C67.474 16.621 67.771 16.426 68.023 16.174C68.275 15.922 68.47 15.622 68.608 15.274C68.752 14.926 68.824 14.542 68.824 14.122V6.04H71.308V14.14C71.308 15.178 71.086 16.081 70.642 16.849C70.198 17.617 69.58 18.214 68.788 18.64C67.996 19.06 67.078 19.27 66.034 19.27ZM77.9605 19.27C76.9945 19.27 76.1875 19.045 75.5395 18.595C74.8915 18.145 74.4025 17.533 74.0725 16.759C73.7485 15.985 73.5865 15.112 73.5865 14.14C73.5865 13.168 73.7485 12.295 74.0725 11.521C74.3965 10.747 74.8735 10.135 75.5035 9.685C76.1335 9.235 76.9105 9.01 77.8345 9.01C78.7645 9.01 79.5745 9.232 80.2645 9.676C80.9545 10.12 81.4885 10.729 81.8665 11.503C82.2505 12.271 82.4425 13.15 82.4425 14.14C82.4425 15.112 82.2535 15.985 81.8755 16.759C81.5035 17.533 80.9815 18.145 80.3095 18.595C79.6375 19.045 78.8545 19.27 77.9605 19.27ZM73.1725 23.32V9.28H75.3325V15.94H75.6385V23.32H73.1725ZM77.5645 17.092C78.0925 17.092 78.5245 16.96 78.8605 16.696C79.1965 16.432 79.4455 16.078 79.6075 15.634C79.7695 15.184 79.8505 14.686 79.8505 14.14C79.8505 13.6 79.7665 13.108 79.5985 12.664C79.4305 12.214 79.1695 11.857 78.8155 11.593C78.4675 11.323 78.0205 11.188 77.4745 11.188C76.9645 11.188 76.5505 11.311 76.2325 11.557C75.9205 11.803 75.6925 12.148 75.5485 12.592C75.4045 13.036 75.3325 13.552 75.3325 14.14C75.3325 14.728 75.4045 15.244 75.5485 15.688C75.6925 16.132 75.9265 16.477 76.2505 16.723C76.5805 16.969 77.0185 17.092 77.5645 17.092ZM87.735 19.27C86.841 19.27 86.058 19.045 85.386 18.595C84.714 18.145 84.189 17.533 83.811 16.759C83.439 15.985 83.253 15.112 83.253 14.14C83.253 13.15 83.442 12.271 83.82 11.503C84.204 10.729 84.741 10.12 85.431 9.676C86.121 9.232 86.931 9.01 87.861 9.01C88.785 9.01 89.562 9.235 90.192 9.685C90.822 10.135 91.299 10.747 91.623 11.521C91.947 12.295 92.109 13.168 92.109 14.14C92.109 15.112 91.944 15.985 91.614 16.759C91.29 17.533 90.804 18.145 90.156 18.595C89.508 19.045 88.701 19.27 87.735 19.27ZM88.131 17.092C88.677 17.092 89.112 16.969 89.436 16.723C89.766 16.477 90.003 16.132 90.147 15.688C90.291 15.244 90.363 14.728 90.363 14.14C90.363 13.552 90.291 13.036 90.147 12.592C90.003 12.148 89.772 11.803 89.454 11.557C89.142 11.311 88.731 11.188 88.221 11.188C87.675 11.188 87.225 11.323 86.871 11.593C86.523 11.857 86.265 12.214 86.097 12.664C85.929 13.108 85.845 13.6 85.845 14.14C85.845 14.686 85.926 15.184 86.088 15.634C86.25 16.078 86.499 16.432 86.835 16.696C87.171 16.96 87.603 17.092 88.131 17.092ZM90.363 19V12.34H90.057V6.04H92.523V19H90.363ZM97.113 19.27C96.417 19.27 95.826 19.138 95.34 18.874C94.86 18.604 94.494 18.247 94.242 17.803C93.996 17.353 93.873 16.858 93.873 16.318C93.873 15.868 93.942 15.457 94.08 15.085C94.218 14.713 94.44 14.386 94.746 14.104C95.058 13.816 95.475 13.576 95.997 13.384C96.357 13.252 96.786 13.135 97.284 13.033C97.782 12.931 98.346 12.835 98.976 12.745C99.606 12.649 100.299 12.544 101.055 12.43L100.173 12.916C100.173 12.34 100.035 11.917 99.759 11.647C99.483 11.377 99.021 11.242 98.373 11.242C98.013 11.242 97.638 11.329 97.248 11.503C96.858 11.677 96.585 11.986 96.429 12.43L94.215 11.728C94.461 10.924 94.923 10.27 95.601 9.766C96.279 9.262 97.203 9.01 98.373 9.01C99.231 9.01 99.993 9.142 100.659 9.406C101.325 9.67 101.829 10.126 102.171 10.774C102.363 11.134 102.477 11.494 102.513 11.854C102.549 12.214 102.567 12.616 102.567 13.06V19H100.425V17.002L100.731 17.416C100.257 18.07 99.744 18.544 99.192 18.838C98.646 19.126 97.953 19.27 97.113 19.27ZM97.635 17.344C98.085 17.344 98.463 17.266 98.769 17.11C99.081 16.948 99.327 16.765 99.507 16.561C99.693 16.357 99.819 16.186 99.885 16.048C100.011 15.784 100.083 15.478 100.101 15.13C100.125 14.776 100.137 14.482 100.137 14.248L100.857 14.428C100.131 14.548 99.543 14.65 99.093 14.734C98.643 14.812 98.28 14.884 98.004 14.95C97.728 15.016 97.485 15.088 97.275 15.166C97.035 15.262 96.84 15.367 96.69 15.481C96.546 15.589 96.438 15.709 96.366 15.841C96.3 15.973 96.267 16.12 96.267 16.282C96.267 16.504 96.321 16.696 96.429 16.858C96.543 17.014 96.702 17.134 96.906 17.218C97.11 17.302 97.353 17.344 97.635 17.344ZM110.109 19C109.437 19.126 108.777 19.18 108.129 19.162C107.487 19.15 106.911 19.039 106.401 18.829C105.897 18.613 105.513 18.268 105.249 17.794C105.009 17.35 104.883 16.9 104.871 16.444C104.859 15.982 104.853 15.46 104.853 14.878V6.58H107.301V14.734C107.301 15.112 107.304 15.454 107.31 15.76C107.322 16.06 107.385 16.3 107.499 16.48C107.715 16.822 108.06 17.008 108.534 17.038C109.008 17.068 109.533 17.044 110.109 16.966V19ZM103.197 11.17V9.28H110.109V11.17H103.197ZM115.636 19.27C114.64 19.27 113.761 19.057 112.999 18.631C112.243 18.199 111.649 17.608 111.217 16.858C110.791 16.102 110.578 15.238 110.578 14.266C110.578 13.204 110.788 12.28 111.208 11.494C111.628 10.708 112.207 10.099 112.945 9.667C113.683 9.229 114.532 9.01 115.492 9.01C116.512 9.01 117.379 9.25 118.093 9.73C118.807 10.21 119.335 10.885 119.677 11.755C120.019 12.625 120.139 13.648 120.037 14.824H117.616V13.924C117.616 12.934 117.457 12.223 117.139 11.791C116.827 11.353 116.314 11.134 115.6 11.134C114.766 11.134 114.151 11.389 113.755 11.899C113.365 12.403 113.17 13.15 113.17 14.14C113.17 15.046 113.365 15.748 113.755 16.246C114.151 16.738 114.73 16.984 115.492 16.984C115.972 16.984 116.383 16.879 116.725 16.669C117.067 16.459 117.328 16.156 117.508 15.76L119.956 16.462C119.59 17.35 119.011 18.04 118.219 18.532C117.433 19.024 116.572 19.27 115.636 19.27ZM112.414 14.824V13.006H118.858V14.824H112.414ZM124.413 19V6.04H129.885C130.011 6.04 130.179 6.046 130.389 6.058C130.605 6.064 130.797 6.082 130.965 6.112C131.739 6.232 132.372 6.487 132.864 6.877C133.362 7.267 133.728 7.759 133.962 8.353C134.196 8.941 134.313 9.598 134.313 10.324C134.313 11.05 134.193 11.71 133.953 12.304C133.719 12.892 133.353 13.381 132.855 13.771C132.363 14.161 131.733 14.416 130.965 14.536C130.797 14.56 130.605 14.578 130.389 14.59C130.173 14.602 130.005 14.608 129.885 14.608H126.861V19H124.413ZM126.861 12.322H129.777C129.903 12.322 130.041 12.316 130.191 12.304C130.341 12.292 130.479 12.268 130.605 12.232C130.935 12.142 131.19 11.992 131.37 11.782C131.55 11.566 131.673 11.329 131.739 11.071C131.811 10.807 131.847 10.558 131.847 10.324C131.847 10.09 131.811 9.844 131.739 9.586C131.673 9.322 131.55 9.085 131.37 8.875C131.19 8.659 130.935 8.506 130.605 8.416C130.479 8.38 130.341 8.356 130.191 8.344C130.041 8.332 129.903 8.326 129.777 8.326H126.861V12.322ZM135.49 19V9.28H137.65V11.656L137.416 11.35C137.542 11.014 137.71 10.708 137.92 10.432C138.13 10.156 138.388 9.928 138.694 9.748C138.928 9.604 139.183 9.493 139.459 9.415C139.735 9.331 140.02 9.28 140.314 9.262C140.608 9.238 140.902 9.244 141.196 9.28V11.566C140.926 11.482 140.611 11.455 140.251 11.485C139.897 11.509 139.576 11.59 139.288 11.728C139 11.86 138.757 12.037 138.559 12.259C138.361 12.475 138.211 12.733 138.109 13.033C138.007 13.327 137.956 13.66 137.956 14.032V19H135.49ZM146.476 19.27C145.498 19.27 144.64 19.051 143.902 18.613C143.164 18.175 142.588 17.572 142.174 16.804C141.766 16.03 141.562 15.142 141.562 14.14C141.562 13.126 141.772 12.235 142.192 11.467C142.612 10.693 143.191 10.09 143.929 9.658C144.667 9.226 145.516 9.01 146.476 9.01C147.454 9.01 148.312 9.229 149.05 9.667C149.794 10.105 150.373 10.711 150.787 11.485C151.201 12.253 151.408 13.138 151.408 14.14C151.408 15.148 151.198 16.039 150.778 16.813C150.364 17.581 149.785 18.184 149.041 18.622C148.303 19.054 147.448 19.27 146.476 19.27ZM146.476 16.984C147.262 16.984 147.847 16.72 148.231 16.192C148.621 15.658 148.816 14.974 148.816 14.14C148.816 13.276 148.618 12.586 148.222 12.07C147.832 11.554 147.25 11.296 146.476 11.296C145.942 11.296 145.504 11.416 145.162 11.656C144.82 11.896 144.565 12.229 144.397 12.655C144.235 13.081 144.154 13.576 144.154 14.14C144.154 15.01 144.349 15.703 144.739 16.219C145.135 16.729 145.714 16.984 146.476 16.984ZM153.567 19V9.316C153.567 9.07 153.573 8.791 153.585 8.479C153.597 8.167 153.645 7.852 153.729 7.534C153.819 7.216 153.981 6.928 154.215 6.67C154.515 6.334 154.839 6.106 155.187 5.986C155.541 5.86 155.883 5.794 156.213 5.788C156.543 5.776 156.825 5.77 157.059 5.77H158.265V7.75H157.149C156.765 7.75 156.48 7.849 156.294 8.047C156.108 8.239 156.015 8.47 156.015 8.74V19H153.567ZM152.037 11.17V9.28H158.265V11.17H152.037ZM160.155 7.93V5.77H162.603V7.93H160.155ZM160.155 19V9.28H162.603V19H160.155ZM164.858 19V5.77H167.306V19H164.858ZM173.892 19.27C172.896 19.27 172.017 19.057 171.255 18.631C170.499 18.199 169.905 17.608 169.473 16.858C169.047 16.102 168.834 15.238 168.834 14.266C168.834 13.204 169.044 12.28 169.464 11.494C169.884 10.708 170.463 10.099 171.201 9.667C171.939 9.229 172.788 9.01 173.748 9.01C174.768 9.01 175.635 9.25 176.349 9.73C177.063 10.21 177.591 10.885 177.933 11.755C178.275 12.625 178.395 13.648 178.293 14.824H175.872V13.924C175.872 12.934 175.713 12.223 175.395 11.791C175.083 11.353 174.57 11.134 173.856 11.134C173.022 11.134 172.407 11.389 172.011 11.899C171.621 12.403 171.426 13.15 171.426 14.14C171.426 15.046 171.621 15.748 172.011 16.246C172.407 16.738 172.986 16.984 173.748 16.984C174.228 16.984 174.639 16.879 174.981 16.669C175.323 16.459 175.584 16.156 175.764 15.76L178.212 16.462C177.846 17.35 177.267 18.04 176.475 18.532C175.689 19.024 174.828 19.27 173.892 19.27ZM170.67 14.824V13.006H177.114V14.824H170.67Z" fill="#0C1024"/>
</svg>
