<svg width="115" height="26" viewBox="0 0 115 26" fill="none" xmlns="http://www.w3.org/2000/svg">
<path d="M45.1612 23.9871C45.1727 23.9391 45.1861 23.8892 45.1976 23.8393C45.2418 23.6607 45.284 23.4841 45.3281 23.3018C45.3358 23.2653 45.3435 23.2269 45.3531 23.1886C45.3992 22.9928 45.4433 22.797 45.4875 22.5993C45.4913 22.5762 45.4951 22.5513 45.5009 22.5302C45.5834 22.1386 45.6583 21.7432 45.7236 21.3459C45.8445 22.2231 45.9097 23.1079 45.9097 23.9871H45.1612ZM44.4375 22.2941C44.4318 22.319 44.426 22.344 44.4222 22.3689C44.4164 22.3901 44.4126 22.4112 44.4068 22.4323C43.5834 19.9331 42.4413 17.5089 41.1725 15.2439C41.4316 15.2976 41.6946 15.3552 41.9537 15.4205C42.6217 15.5894 43.2686 15.8121 43.7868 16.1153C44.0997 16.2996 44.3607 16.5127 44.5661 16.7545C44.5891 16.8409 44.6083 16.9273 44.6295 17.0117C44.7792 17.6471 44.8464 18.2978 44.8464 18.9638C44.8483 20.0541 44.6736 21.1789 44.4375 22.2941ZM41.8981 23.9928C40.2281 23.9928 38.5601 24.0062 36.8921 24.0101C38.2031 21.3631 39.349 18.649 40.255 15.8332C41.6946 18.411 42.9557 21.1827 43.7465 24.0024C43.1304 23.9966 42.5142 23.9928 41.8981 23.9928ZM36.0111 23.3364C34.4083 20.1558 32.6386 17.0712 30.7114 14.0711C33.6405 14.1959 36.537 14.4416 39.3989 14.9118C38.5064 17.8102 37.3528 20.605 36.0111 23.3364ZM25.9108 24.0005H24.4463C26.2602 20.8814 28.0415 17.745 29.7325 14.5625C31.7019 17.6202 33.5023 20.7643 35.13 24.0101C32.0646 24.0043 28.9935 24.0005 25.9108 24.0005ZM23.5 23.4438C23.4981 23.4477 23.4962 23.4496 23.4942 23.4534C21.6765 20.3266 19.8972 17.1902 18.21 14.0135C19.4307 13.9886 20.6515 13.9694 21.8742 13.9694C22.4155 13.9694 22.9587 13.9732 23.5 13.979C24.0413 13.9732 24.5845 13.9694 25.1258 13.9694C26.3485 13.9694 27.5693 13.9886 28.79 14.0135C27.1028 17.1902 25.3235 20.3266 23.5058 23.4534C23.5038 23.4496 23.5019 23.4477 23.5 23.4438ZM21.0891 24.0005C18.0065 24.0005 14.9354 24.0043 11.87 24.0101C13.4977 20.7643 15.2981 17.6202 17.2675 14.5625C18.9585 17.745 20.7398 20.8814 22.5537 24.0005H21.0891ZM10.9889 23.3364C9.64723 20.605 8.49363 17.8102 7.60108 14.9118C10.463 14.4416 13.3595 14.1959 16.2886 14.0711C14.3614 17.0712 12.5917 20.1558 10.9889 23.3364ZM5.10194 23.9928C4.48579 23.9928 3.86964 23.9966 3.25349 24.0024C4.04431 21.1827 5.3054 18.411 6.745 15.8332C7.65098 18.649 8.79691 21.3631 10.1079 24.0101C8.43989 24.0062 6.77187 23.9928 5.10194 23.9928ZM2.57784 22.3689C2.574 22.344 2.56824 22.319 2.56248 22.2941C2.32639 21.1789 2.15172 20.0541 2.15364 18.9638C2.15364 18.2978 2.22082 17.6471 2.37054 17.0117C2.39165 16.9273 2.41085 16.8409 2.43388 16.7545C2.63926 16.5127 2.90031 16.2996 3.21318 16.1153C3.73144 15.8121 4.3783 15.5894 5.04627 15.4205C5.3054 15.3552 5.56837 15.2976 5.82749 15.2439C4.55873 17.5089 3.41665 19.9331 2.5932 22.4323C2.58744 22.4112 2.5836 22.3901 2.57784 22.3689ZM1.09026 23.9871C1.09026 23.1079 1.15552 22.2231 1.27644 21.3459C1.34171 21.7432 1.41657 22.1386 1.4991 22.5302C1.50486 22.5513 1.5087 22.5762 1.51254 22.5993C1.55669 22.797 1.60083 22.9928 1.6469 23.1886C1.6565 23.2269 1.66418 23.2653 1.67186 23.3018C1.716 23.4841 1.75823 23.6607 1.80238 23.8393C1.81389 23.8892 1.82733 23.9391 1.83885 23.9871H1.09026ZM5.69121 10.712V10.7255C5.69121 11.4203 5.79294 12.1171 5.92539 12.7774C6.01752 13.2246 6.12309 13.6527 6.22482 14.0519C5.55685 14.1824 4.79674 14.3341 4.05391 14.5721C3.76599 14.6661 3.48191 14.7736 3.2055 14.9003C3.89267 13.4262 4.72188 12.0077 5.69121 10.712ZM7.16344 8.97108C8.0368 8.23977 9.07139 7.6908 10.1808 7.27044C10.7471 7.05546 11.3325 6.87503 11.9237 6.72147C10.1002 8.66013 8.50131 10.8291 7.10586 13.0749C7.06747 12.906 7.02908 12.7332 6.99453 12.5605C6.86784 11.9424 6.77955 11.3128 6.77955 10.7255C6.77955 10.0613 6.89472 9.46247 7.16344 8.97108ZM12.6512 4.66765C12.6819 4.80585 12.7184 4.94213 12.7606 5.07073C12.7951 5.17822 12.8355 5.27803 12.8738 5.37977C12.0907 5.54484 11.2941 5.74447 10.511 6.00167C11.1943 5.51413 11.9122 5.0669 12.6512 4.66765ZM13.4343 6.72723C14.3538 8.85399 15.3749 10.9251 16.4345 12.9751C13.5956 13.0903 10.774 13.3148 7.97154 13.7486C9.53206 11.2226 11.3479 8.80217 13.4343 6.72723ZM15.6724 3.31442C15.0217 3.79429 14.4094 4.31255 13.8336 4.8404C13.8201 4.80585 13.8086 4.76938 13.7971 4.73483C13.7299 4.53136 13.6839 4.3375 13.6666 4.15899C14.3211 3.84612 14.991 3.56396 15.6724 3.31442ZM20.425 2.20305C20.6534 2.30286 20.8991 2.4545 21.1487 2.65605C21.5959 3.01307 22.0508 3.50829 22.4654 4.01119C22.6036 4.17818 22.736 4.34326 22.8647 4.50833C22.5134 4.50065 22.1602 4.49681 21.8051 4.49681C19.6611 4.49681 17.5055 4.62158 15.3826 4.92869C15.92 4.47954 16.4824 4.0515 17.066 3.67336C18.1236 2.98428 19.2484 2.45834 20.425 2.20305ZM23.0796 2.03798C23.2198 2.03798 23.3599 2.0399 23.5 2.04182C23.6401 2.0399 23.7802 2.03798 23.9204 2.03798C24.239 2.03798 24.5557 2.04758 24.8724 2.05909C24.621 2.28751 24.381 2.5332 24.1526 2.78465C23.9223 3.03994 23.7035 3.30099 23.5 3.55627C23.2965 3.30099 23.0777 3.03994 22.8474 2.78465C22.619 2.5332 22.379 2.28751 22.1276 2.05909C22.4443 2.04758 22.761 2.03798 23.0796 2.03798ZM25.8513 2.65605C26.1009 2.4545 26.3466 2.30286 26.575 2.20305C27.7516 2.45834 28.8764 2.98428 29.934 3.67336C30.5176 4.0515 31.08 4.47954 31.6174 4.92869C29.4945 4.62158 27.3389 4.49681 25.1949 4.49681C24.8398 4.49681 24.4866 4.50065 24.1353 4.50833C24.2639 4.34326 24.3964 4.17818 24.5346 4.01119C24.9492 3.50829 25.4041 3.01307 25.8513 2.65605ZM33.3334 4.15899C33.3161 4.3375 33.2701 4.53136 33.2029 4.73483C33.1914 4.76938 33.1799 4.80585 33.1664 4.8404C32.5906 4.31255 31.9783 3.79429 31.3276 3.31442C32.009 3.56396 32.6789 3.84612 33.3334 4.15899ZM24.2793 5.59474C24.5845 5.59091 24.8897 5.58707 25.1949 5.58707C27.6902 5.58707 30.1855 5.7579 32.6079 6.19554C31.7038 8.30119 30.6884 10.3627 29.6288 12.4127C28.028 10.0134 26.3082 7.68888 24.2793 5.59474ZM17.3711 12.4127C16.3116 10.3627 15.2962 8.30119 14.3921 6.19554C16.8145 5.7579 19.3098 5.58707 21.8051 5.58707C22.1103 5.58707 22.4155 5.59091 22.7207 5.59474C20.6918 7.68888 18.972 10.0134 17.3711 12.4127ZM23.5 12.8887C22.9568 12.8829 22.4155 12.8791 21.8742 12.8791C20.6937 12.8791 19.5171 12.8964 18.3424 12.9213C19.9048 10.5892 21.5671 8.3607 23.5 6.36637C25.4329 8.3607 27.0952 10.5892 28.6576 12.9213C27.4829 12.8964 26.3063 12.8791 25.1258 12.8791C24.5845 12.8791 24.0432 12.8829 23.5 12.8887ZM39.0285 13.7486C36.226 13.3148 33.4044 13.0903 30.5655 12.9751C31.6251 10.9251 32.6462 8.85399 33.5657 6.72723C35.6521 8.80217 37.4679 11.2226 39.0285 13.7486ZM34.2394 5.07073C34.2816 4.94213 34.3181 4.80585 34.3488 4.66765C35.0878 5.0669 35.8057 5.51413 36.489 6.00167C35.7059 5.74447 34.9093 5.54484 34.1262 5.37977C34.1645 5.27803 34.2048 5.17822 34.2394 5.07073ZM39.8366 8.97108C40.1053 9.46247 40.2205 10.0613 40.2205 10.7255C40.2205 11.3128 40.1322 11.9424 40.0055 12.5605C39.9709 12.7332 39.9325 12.906 39.8941 13.0749C38.4987 10.8291 36.8998 8.66013 35.0763 6.72147C35.6675 6.87503 36.2529 7.05546 36.8192 7.27044C37.9286 7.6908 38.9632 8.23977 39.8366 8.97108ZM41.0746 12.7774C41.2071 12.1171 41.3088 11.4203 41.3088 10.7255V10.712C42.2781 12.0077 43.1073 13.4262 43.7945 14.9003C43.5181 14.7736 43.234 14.6661 42.9461 14.5721C42.2033 14.3341 41.4431 14.1824 40.7752 14.0519C40.8769 13.6527 40.9825 13.2246 41.0746 12.7774ZM46.6142 20.0368C46.403 18.8122 46.0902 17.6048 45.666 16.4378C45.666 16.4359 45.666 16.4359 45.666 16.4359C45.666 16.434 45.666 16.434 45.664 16.432L45.4894 15.9579C45.4817 15.9387 45.4721 15.9234 45.4625 15.9061C45.0633 14.5529 44.4202 13.2093 43.6352 11.9559C42.8808 10.7504 41.9998 9.62946 41.0804 8.66781C40.8692 8.42788 40.6581 8.19178 40.4393 7.96144C40.4239 7.94609 40.4066 7.93265 40.3894 7.91922C39.9959 7.4739 39.5678 7.07082 39.1283 6.69268C38.6887 6.31647 38.2396 5.9652 37.8058 5.62162C37.8038 5.6197 37.8038 5.6197 37.8038 5.6197L37.8 5.61778C36.6618 4.73483 35.416 3.95744 34.1204 3.32594C34.1204 3.32594 34.1185 3.32594 34.1185 3.32402C34.1185 3.32402 34.1185 3.32402 34.1166 3.32402C32.5714 2.55816 30.936 1.9516 29.2488 1.54852C28.4714 1.35465 27.6595 1.18574 26.8322 1.1128C26.7957 1.10128 26.7593 1.09169 26.7209 1.08785L25.907 0.99955C25.9032 0.99955 25.8974 0.997629 25.8936 0.997629C25.8878 0.997629 25.884 0.999548 25.8801 0.997629C25.1565 0.934286 24.4194 0.899738 23.6766 0.899738C23.6171 0.899738 23.5595 0.899736 23.5 0.901655C23.4405 0.899736 23.3829 0.899738 23.3234 0.899738C22.5806 0.899738 21.8435 0.934286 21.1199 0.997629C21.116 0.999548 21.1122 0.997629 21.1064 0.997629C21.1026 0.997629 21.0968 0.99955 21.093 0.99955L20.2791 1.08785C20.2407 1.09169 20.2043 1.10128 20.1678 1.1128C19.3405 1.18574 18.5286 1.35465 17.7512 1.54852C16.064 1.9516 14.4286 2.55816 12.8834 3.32402C12.8815 3.32402 12.8815 3.32402 12.8815 3.32402C12.8815 3.32594 12.8796 3.32594 12.8796 3.32594C11.584 3.95744 10.3382 4.73483 9.19999 5.61778L9.19615 5.6197C9.19615 5.6197 9.19615 5.6197 9.19423 5.62162C8.76043 5.9652 8.31128 6.31647 7.87172 6.69268C7.43217 7.07082 7.00412 7.4739 6.61063 7.91922C6.59336 7.93265 6.57608 7.94609 6.56073 7.96144C6.34191 8.19178 6.13077 8.42788 5.91963 8.66781C5.0002 9.62946 4.11917 10.7504 3.36482 11.9559C2.57976 13.2093 1.93674 14.5529 1.53749 15.9061C1.5279 15.9234 1.5183 15.9387 1.51062 15.9579L1.33595 16.432C1.33403 16.434 1.33403 16.434 1.33403 16.4359C1.33403 16.4359 1.33403 16.4359 1.33403 16.4378C0.909826 17.6048 0.596955 18.8122 0.385814 20.0368C0.134364 21.3478 0 22.6837 0 24.0158C0 24.1924 0.0019204 24.3709 0.00575933 24.5475L0.021116 25.0773H2.39549C2.39933 25.0773 2.40317 25.0792 2.40893 25.0792C2.41661 25.0831 2.42428 25.085 2.43388 25.0869C2.46843 25.0946 2.5049 25.0984 2.54137 25.0984C2.54329 25.0984 2.54329 25.0984 2.54521 25.0984C2.54713 25.0984 2.54905 25.0984 2.54905 25.0984C3.39937 25.085 4.24969 25.0811 5.10194 25.0811C6.9331 25.0811 8.77195 25.1003 10.6146 25.1003H10.9889C10.9889 25.1003 10.9889 25.1003 10.9909 25.1003C14.3442 25.0946 17.7109 25.0888 21.0891 25.0888C21.8915 25.0888 22.6957 25.0888 23.5 25.0907C24.3043 25.0888 25.1085 25.0888 25.9108 25.0888C29.2891 25.0888 32.6558 25.0946 36.0091 25.1003C36.0111 25.1003 36.0111 25.1003 36.0111 25.1003H36.3854C38.228 25.1003 40.0669 25.0811 41.8981 25.0811C42.7503 25.0811 43.6006 25.085 44.451 25.0984C44.451 25.0984 44.4529 25.0984 44.4548 25.0984C44.4567 25.0984 44.4567 25.0984 44.4586 25.0984C44.4951 25.0984 44.5316 25.0946 44.5661 25.0869C44.5757 25.085 44.5834 25.0831 44.5911 25.0792C44.5968 25.0792 44.6007 25.0773 44.6045 25.0773H46.9789L46.9942 24.5475C46.9981 24.3709 47 24.1924 47 24.0158C47 22.6837 46.8656 21.3478 46.6142 20.0368Z" fill="#FFCC68"/>
<path d="M60.26 19.5V6.54H65.732C65.858 6.54 66.026 6.546 66.236 6.558C66.452 6.564 66.644 6.582 66.812 6.612C67.586 6.732 68.219 6.987 68.711 7.377C69.209 7.767 69.575 8.259 69.809 8.853C70.043 9.441 70.16 10.098 70.16 10.824C70.16 11.55 70.04 12.21 69.8 12.804C69.566 13.392 69.2 13.881 68.702 14.271C68.21 14.661 67.58 14.916 66.812 15.036C66.644 15.06 66.452 15.078 66.236 15.09C66.02 15.102 65.852 15.108 65.732 15.108H62.708V19.5H60.26ZM62.708 12.822H65.624C65.75 12.822 65.888 12.816 66.038 12.804C66.188 12.792 66.326 12.768 66.452 12.732C66.782 12.642 67.037 12.492 67.217 12.282C67.397 12.066 67.52 11.829 67.586 11.571C67.658 11.307 67.694 11.058 67.694 10.824C67.694 10.59 67.658 10.344 67.586 10.086C67.52 9.822 67.397 9.585 67.217 9.375C67.037 9.159 66.782 9.006 66.452 8.916C66.326 8.88 66.188 8.856 66.038 8.844C65.888 8.832 65.75 8.826 65.624 8.826H62.708V12.822ZM71.337 19.5V9.78H73.497V12.156L73.263 11.85C73.389 11.514 73.557 11.208 73.767 10.932C73.977 10.656 74.235 10.428 74.541 10.248C74.775 10.104 75.03 9.993 75.306 9.915C75.582 9.831 75.867 9.78 76.161 9.762C76.455 9.738 76.749 9.744 77.043 9.78V12.066C76.773 11.982 76.458 11.955 76.098 11.985C75.744 12.009 75.423 12.09 75.135 12.228C74.847 12.36 74.604 12.537 74.406 12.759C74.208 12.975 74.058 13.233 73.956 13.533C73.854 13.827 73.803 14.16 73.803 14.532V19.5H71.337ZM82.3232 19.77C81.3452 19.77 80.4872 19.551 79.7492 19.113C79.0112 18.675 78.4352 18.072 78.0212 17.304C77.6132 16.53 77.4092 15.642 77.4092 14.64C77.4092 13.626 77.6192 12.735 78.0392 11.967C78.4592 11.193 79.0382 10.59 79.7762 10.158C80.5142 9.726 81.3632 9.51 82.3232 9.51C83.3012 9.51 84.1592 9.729 84.8972 10.167C85.6412 10.605 86.2202 11.211 86.6342 11.985C87.0482 12.753 87.2552 13.638 87.2552 14.64C87.2552 15.648 87.0452 16.539 86.6252 17.313C86.2112 18.081 85.6322 18.684 84.8882 19.122C84.1502 19.554 83.2952 19.77 82.3232 19.77ZM82.3232 17.484C83.1092 17.484 83.6942 17.22 84.0782 16.692C84.4682 16.158 84.6632 15.474 84.6632 14.64C84.6632 13.776 84.4652 13.086 84.0692 12.57C83.6792 12.054 83.0972 11.796 82.3232 11.796C81.7892 11.796 81.3512 11.916 81.0092 12.156C80.6672 12.396 80.4122 12.729 80.2442 13.155C80.0822 13.581 80.0012 14.076 80.0012 14.64C80.0012 15.51 80.1962 16.203 80.5862 16.719C80.9822 17.229 81.5612 17.484 82.3232 17.484ZM89.4144 19.5V9.816C89.4144 9.57 89.4204 9.291 89.4324 8.979C89.4444 8.667 89.4924 8.352 89.5764 8.034C89.6664 7.716 89.8284 7.428 90.0624 7.17C90.3624 6.834 90.6864 6.606 91.0344 6.486C91.3884 6.36 91.7304 6.294 92.0604 6.288C92.3904 6.276 92.6724 6.27 92.9064 6.27H94.1124V8.25H92.9964C92.6124 8.25 92.3274 8.349 92.1414 8.547C91.9554 8.739 91.8624 8.97 91.8624 9.24V19.5H89.4144ZM87.8844 11.67V9.78H94.1124V11.67H87.8844ZM96.0024 8.43V6.27H98.4504V8.43H96.0024ZM96.0024 19.5V9.78H98.4504V19.5H96.0024ZM100.705 19.5V6.27H103.153V19.5H100.705ZM109.739 19.77C108.743 19.77 107.864 19.557 107.102 19.131C106.346 18.699 105.752 18.108 105.32 17.358C104.894 16.602 104.681 15.738 104.681 14.766C104.681 13.704 104.891 12.78 105.311 11.994C105.731 11.208 106.31 10.599 107.048 10.167C107.786 9.729 108.635 9.51 109.595 9.51C110.615 9.51 111.482 9.75 112.196 10.23C112.91 10.71 113.438 11.385 113.78 12.255C114.122 13.125 114.242 14.148 114.14 15.324H111.719V14.424C111.719 13.434 111.56 12.723 111.242 12.291C110.93 11.853 110.417 11.634 109.703 11.634C108.869 11.634 108.254 11.889 107.858 12.399C107.468 12.903 107.273 13.65 107.273 14.64C107.273 15.546 107.468 16.248 107.858 16.746C108.254 17.238 108.833 17.484 109.595 17.484C110.075 17.484 110.486 17.379 110.828 17.169C111.17 16.959 111.431 16.656 111.611 16.26L114.059 16.962C113.693 17.85 113.114 18.54 112.322 19.032C111.536 19.524 110.675 19.77 109.739 19.77ZM106.517 15.324V13.506H112.961V15.324H106.517Z" fill="#0C1024"/>
</svg>
