<svg width="141" height="26" viewBox="0 0 141 26" fill="none" xmlns="http://www.w3.org/2000/svg">
<path d="M45.1612 23.9871C45.1727 23.9391 45.1861 23.8892 45.1976 23.8393C45.2418 23.6607 45.284 23.4841 45.3281 23.3018C45.3358 23.2653 45.3435 23.2269 45.3531 23.1886C45.3992 22.9928 45.4433 22.797 45.4875 22.5993C45.4913 22.5762 45.4951 22.5513 45.5009 22.5302C45.5834 22.1386 45.6583 21.7432 45.7236 21.3459C45.8445 22.2231 45.9097 23.1079 45.9097 23.9871H45.1612ZM44.4375 22.2941C44.4318 22.319 44.426 22.344 44.4222 22.3689C44.4164 22.3901 44.4126 22.4112 44.4068 22.4323C43.5834 19.9331 42.4413 17.5089 41.1725 15.2439C41.4316 15.2976 41.6946 15.3552 41.9537 15.4205C42.6217 15.5894 43.2686 15.8121 43.7868 16.1153C44.0997 16.2996 44.3607 16.5127 44.5661 16.7545C44.5891 16.8409 44.6083 16.9273 44.6295 17.0117C44.7792 17.6471 44.8464 18.2978 44.8464 18.9638C44.8483 20.0541 44.6736 21.1789 44.4375 22.2941ZM41.8981 23.9928C40.2281 23.9928 38.5601 24.0062 36.8921 24.0101C38.2031 21.3631 39.349 18.649 40.255 15.8332C41.6946 18.411 42.9557 21.1827 43.7465 24.0024C43.1304 23.9966 42.5142 23.9928 41.8981 23.9928ZM36.0111 23.3364C34.4083 20.1558 32.6386 17.0712 30.7114 14.0711C33.6405 14.1959 36.537 14.4416 39.3989 14.9118C38.5064 17.8102 37.3528 20.605 36.0111 23.3364ZM25.9108 24.0005H24.4463C26.2602 20.8814 28.0415 17.745 29.7325 14.5625C31.7019 17.6202 33.5023 20.7643 35.13 24.0101C32.0646 24.0043 28.9935 24.0005 25.9108 24.0005ZM23.5 23.4438C23.4981 23.4477 23.4962 23.4496 23.4942 23.4534C21.6765 20.3266 19.8972 17.1902 18.21 14.0135C19.4307 13.9886 20.6515 13.9694 21.8742 13.9694C22.4155 13.9694 22.9587 13.9732 23.5 13.979C24.0413 13.9732 24.5845 13.9694 25.1258 13.9694C26.3485 13.9694 27.5693 13.9886 28.79 14.0135C27.1028 17.1902 25.3235 20.3266 23.5058 23.4534C23.5038 23.4496 23.5019 23.4477 23.5 23.4438ZM21.0891 24.0005C18.0065 24.0005 14.9354 24.0043 11.87 24.0101C13.4977 20.7643 15.2981 17.6202 17.2675 14.5625C18.9585 17.745 20.7398 20.8814 22.5537 24.0005H21.0891ZM10.9889 23.3364C9.64723 20.605 8.49363 17.8102 7.60108 14.9118C10.463 14.4416 13.3595 14.1959 16.2886 14.0711C14.3614 17.0712 12.5917 20.1558 10.9889 23.3364ZM5.10194 23.9928C4.48579 23.9928 3.86964 23.9966 3.25349 24.0024C4.04431 21.1827 5.3054 18.411 6.745 15.8332C7.65098 18.649 8.79691 21.3631 10.1079 24.0101C8.43989 24.0062 6.77187 23.9928 5.10194 23.9928ZM2.57784 22.3689C2.574 22.344 2.56824 22.319 2.56248 22.2941C2.32639 21.1789 2.15172 20.0541 2.15364 18.9638C2.15364 18.2978 2.22082 17.6471 2.37054 17.0117C2.39165 16.9273 2.41085 16.8409 2.43388 16.7545C2.63926 16.5127 2.90031 16.2996 3.21318 16.1153C3.73144 15.8121 4.3783 15.5894 5.04627 15.4205C5.3054 15.3552 5.56837 15.2976 5.82749 15.2439C4.55873 17.5089 3.41665 19.9331 2.5932 22.4323C2.58744 22.4112 2.5836 22.3901 2.57784 22.3689ZM1.09026 23.9871C1.09026 23.1079 1.15552 22.2231 1.27644 21.3459C1.34171 21.7432 1.41657 22.1386 1.4991 22.5302C1.50486 22.5513 1.5087 22.5762 1.51254 22.5993C1.55669 22.797 1.60083 22.9928 1.6469 23.1886C1.6565 23.2269 1.66418 23.2653 1.67186 23.3018C1.716 23.4841 1.75823 23.6607 1.80238 23.8393C1.81389 23.8892 1.82733 23.9391 1.83885 23.9871H1.09026ZM5.69121 10.712V10.7255C5.69121 11.4203 5.79294 12.1171 5.92539 12.7774C6.01752 13.2246 6.12309 13.6527 6.22482 14.0519C5.55685 14.1824 4.79674 14.3341 4.05391 14.5721C3.76599 14.6661 3.48191 14.7736 3.2055 14.9003C3.89267 13.4262 4.72188 12.0077 5.69121 10.712ZM7.16344 8.97108C8.0368 8.23977 9.07139 7.6908 10.1808 7.27044C10.7471 7.05546 11.3325 6.87503 11.9237 6.72147C10.1002 8.66013 8.50131 10.8291 7.10586 13.0749C7.06747 12.906 7.02908 12.7332 6.99453 12.5605C6.86784 11.9424 6.77955 11.3128 6.77955 10.7255C6.77955 10.0613 6.89472 9.46247 7.16344 8.97108ZM12.6512 4.66765C12.6819 4.80585 12.7184 4.94213 12.7606 5.07073C12.7951 5.17822 12.8355 5.27803 12.8738 5.37977C12.0907 5.54484 11.2941 5.74447 10.511 6.00167C11.1943 5.51413 11.9122 5.0669 12.6512 4.66765ZM13.4343 6.72723C14.3538 8.85399 15.3749 10.9251 16.4345 12.9751C13.5956 13.0903 10.774 13.3148 7.97154 13.7486C9.53206 11.2226 11.3479 8.80217 13.4343 6.72723ZM15.6724 3.31442C15.0217 3.79429 14.4094 4.31255 13.8336 4.8404C13.8201 4.80585 13.8086 4.76938 13.7971 4.73483C13.7299 4.53136 13.6839 4.3375 13.6666 4.15899C14.3211 3.84612 14.991 3.56396 15.6724 3.31442ZM20.425 2.20305C20.6534 2.30286 20.8991 2.4545 21.1487 2.65605C21.5959 3.01307 22.0508 3.50829 22.4654 4.01119C22.6036 4.17818 22.736 4.34326 22.8647 4.50833C22.5134 4.50065 22.1602 4.49681 21.8051 4.49681C19.6611 4.49681 17.5055 4.62158 15.3826 4.92869C15.92 4.47954 16.4824 4.0515 17.066 3.67336C18.1236 2.98428 19.2484 2.45834 20.425 2.20305ZM23.0796 2.03798C23.2198 2.03798 23.3599 2.0399 23.5 2.04182C23.6401 2.0399 23.7802 2.03798 23.9204 2.03798C24.239 2.03798 24.5557 2.04758 24.8724 2.05909C24.621 2.28751 24.381 2.5332 24.1526 2.78465C23.9223 3.03994 23.7035 3.30099 23.5 3.55627C23.2965 3.30099 23.0777 3.03994 22.8474 2.78465C22.619 2.5332 22.379 2.28751 22.1276 2.05909C22.4443 2.04758 22.761 2.03798 23.0796 2.03798ZM25.8513 2.65605C26.1009 2.4545 26.3466 2.30286 26.575 2.20305C27.7516 2.45834 28.8764 2.98428 29.934 3.67336C30.5176 4.0515 31.08 4.47954 31.6174 4.92869C29.4945 4.62158 27.3389 4.49681 25.1949 4.49681C24.8398 4.49681 24.4866 4.50065 24.1353 4.50833C24.2639 4.34326 24.3964 4.17818 24.5346 4.01119C24.9492 3.50829 25.4041 3.01307 25.8513 2.65605ZM33.3334 4.15899C33.3161 4.3375 33.2701 4.53136 33.2029 4.73483C33.1914 4.76938 33.1799 4.80585 33.1664 4.8404C32.5906 4.31255 31.9783 3.79429 31.3276 3.31442C32.009 3.56396 32.6789 3.84612 33.3334 4.15899ZM24.2793 5.59474C24.5845 5.59091 24.8897 5.58707 25.1949 5.58707C27.6902 5.58707 30.1855 5.7579 32.6079 6.19554C31.7038 8.30119 30.6884 10.3627 29.6288 12.4127C28.028 10.0134 26.3082 7.68888 24.2793 5.59474ZM17.3711 12.4127C16.3116 10.3627 15.2962 8.30119 14.3921 6.19554C16.8145 5.7579 19.3098 5.58707 21.8051 5.58707C22.1103 5.58707 22.4155 5.59091 22.7207 5.59474C20.6918 7.68888 18.972 10.0134 17.3711 12.4127ZM23.5 12.8887C22.9568 12.8829 22.4155 12.8791 21.8742 12.8791C20.6937 12.8791 19.5171 12.8964 18.3424 12.9213C19.9048 10.5892 21.5671 8.3607 23.5 6.36637C25.4329 8.3607 27.0952 10.5892 28.6576 12.9213C27.4829 12.8964 26.3063 12.8791 25.1258 12.8791C24.5845 12.8791 24.0432 12.8829 23.5 12.8887ZM39.0285 13.7486C36.226 13.3148 33.4044 13.0903 30.5655 12.9751C31.6251 10.9251 32.6462 8.85399 33.5657 6.72723C35.6521 8.80217 37.4679 11.2226 39.0285 13.7486ZM34.2394 5.07073C34.2816 4.94213 34.3181 4.80585 34.3488 4.66765C35.0878 5.0669 35.8057 5.51413 36.489 6.00167C35.7059 5.74447 34.9093 5.54484 34.1262 5.37977C34.1645 5.27803 34.2048 5.17822 34.2394 5.07073ZM39.8366 8.97108C40.1053 9.46247 40.2205 10.0613 40.2205 10.7255C40.2205 11.3128 40.1322 11.9424 40.0055 12.5605C39.9709 12.7332 39.9325 12.906 39.8941 13.0749C38.4987 10.8291 36.8998 8.66013 35.0763 6.72147C35.6675 6.87503 36.2529 7.05546 36.8192 7.27044C37.9286 7.6908 38.9632 8.23977 39.8366 8.97108ZM41.0746 12.7774C41.2071 12.1171 41.3088 11.4203 41.3088 10.7255V10.712C42.2781 12.0077 43.1073 13.4262 43.7945 14.9003C43.5181 14.7736 43.234 14.6661 42.9461 14.5721C42.2033 14.3341 41.4431 14.1824 40.7752 14.0519C40.8769 13.6527 40.9825 13.2246 41.0746 12.7774ZM46.6142 20.0368C46.403 18.8122 46.0902 17.6048 45.666 16.4378C45.666 16.4359 45.666 16.4359 45.666 16.4359C45.666 16.434 45.666 16.434 45.664 16.432L45.4894 15.9579C45.4817 15.9387 45.4721 15.9234 45.4625 15.9061C45.0633 14.5529 44.4202 13.2093 43.6352 11.9559C42.8808 10.7504 41.9998 9.62946 41.0804 8.66781C40.8692 8.42788 40.6581 8.19178 40.4393 7.96144C40.4239 7.94609 40.4066 7.93265 40.3894 7.91922C39.9959 7.4739 39.5678 7.07082 39.1283 6.69268C38.6887 6.31647 38.2396 5.9652 37.8058 5.62162C37.8038 5.6197 37.8038 5.6197 37.8038 5.6197L37.8 5.61778C36.6618 4.73483 35.416 3.95744 34.1204 3.32594C34.1204 3.32594 34.1185 3.32594 34.1185 3.32402C34.1185 3.32402 34.1185 3.32402 34.1166 3.32402C32.5714 2.55816 30.936 1.9516 29.2488 1.54852C28.4714 1.35465 27.6595 1.18574 26.8322 1.1128C26.7957 1.10128 26.7593 1.09169 26.7209 1.08785L25.907 0.99955C25.9032 0.99955 25.8974 0.997629 25.8936 0.997629C25.8878 0.997629 25.884 0.999548 25.8801 0.997629C25.1565 0.934286 24.4194 0.899738 23.6766 0.899738C23.6171 0.899738 23.5595 0.899736 23.5 0.901655C23.4405 0.899736 23.3829 0.899738 23.3234 0.899738C22.5806 0.899738 21.8435 0.934286 21.1199 0.997629C21.116 0.999548 21.1122 0.997629 21.1064 0.997629C21.1026 0.997629 21.0968 0.99955 21.093 0.99955L20.2791 1.08785C20.2407 1.09169 20.2043 1.10128 20.1678 1.1128C19.3405 1.18574 18.5286 1.35465 17.7512 1.54852C16.064 1.9516 14.4286 2.55816 12.8834 3.32402C12.8815 3.32402 12.8815 3.32402 12.8815 3.32402C12.8815 3.32594 12.8796 3.32594 12.8796 3.32594C11.584 3.95744 10.3382 4.73483 9.19999 5.61778L9.19615 5.6197C9.19615 5.6197 9.19615 5.6197 9.19423 5.62162C8.76043 5.9652 8.31128 6.31647 7.87172 6.69268C7.43217 7.07082 7.00412 7.4739 6.61063 7.91922C6.59336 7.93265 6.57608 7.94609 6.56073 7.96144C6.34191 8.19178 6.13077 8.42788 5.91963 8.66781C5.0002 9.62946 4.11917 10.7504 3.36482 11.9559C2.57976 13.2093 1.93674 14.5529 1.53749 15.9061C1.5279 15.9234 1.5183 15.9387 1.51062 15.9579L1.33595 16.432C1.33403 16.434 1.33403 16.434 1.33403 16.4359C1.33403 16.4359 1.33403 16.4359 1.33403 16.4378C0.909826 17.6048 0.596955 18.8122 0.385814 20.0368C0.134364 21.3478 0 22.6837 0 24.0158C0 24.1924 0.0019204 24.3709 0.00575933 24.5475L0.021116 25.0773H2.39549C2.39933 25.0773 2.40317 25.0792 2.40893 25.0792C2.41661 25.0831 2.42428 25.085 2.43388 25.0869C2.46843 25.0946 2.5049 25.0984 2.54137 25.0984C2.54329 25.0984 2.54329 25.0984 2.54521 25.0984C2.54713 25.0984 2.54905 25.0984 2.54905 25.0984C3.39937 25.085 4.24969 25.0811 5.10194 25.0811C6.9331 25.0811 8.77195 25.1003 10.6146 25.1003H10.9889C10.9889 25.1003 10.9889 25.1003 10.9909 25.1003C14.3442 25.0946 17.7109 25.0888 21.0891 25.0888C21.8915 25.0888 22.6957 25.0888 23.5 25.0907C24.3043 25.0888 25.1085 25.0888 25.9108 25.0888C29.2891 25.0888 32.6558 25.0946 36.0091 25.1003C36.0111 25.1003 36.0111 25.1003 36.0111 25.1003H36.3854C38.228 25.1003 40.0669 25.0811 41.8981 25.0811C42.7503 25.0811 43.6006 25.085 44.451 25.0984C44.451 25.0984 44.4529 25.0984 44.4548 25.0984C44.4567 25.0984 44.4567 25.0984 44.4586 25.0984C44.4951 25.0984 44.5316 25.0946 44.5661 25.0869C44.5757 25.085 44.5834 25.0831 44.5911 25.0792C44.5968 25.0792 44.6007 25.0773 44.6045 25.0773H46.9789L46.9942 24.5475C46.9981 24.3709 47 24.1924 47 24.0158C47 22.6837 46.8656 21.3478 46.6142 20.0368Z" fill="#FFCC68"/>
<path d="M63.428 19.5V14.226L59 6.54H61.862L64.67 11.418L67.478 6.54H70.34L65.912 14.226V19.5H63.428ZM73.9005 19.77C72.9225 19.77 72.0645 19.551 71.3265 19.113C70.5885 18.675 70.0125 18.072 69.5985 17.304C69.1905 16.53 68.9865 15.642 68.9865 14.64C68.9865 13.626 69.1965 12.735 69.6165 11.967C70.0365 11.193 70.6155 10.59 71.3535 10.158C72.0915 9.726 72.9405 9.51 73.9005 9.51C74.8785 9.51 75.7365 9.729 76.4745 10.167C77.2185 10.605 77.7975 11.211 78.2115 11.985C78.6255 12.753 78.8325 13.638 78.8325 14.64C78.8325 15.648 78.6225 16.539 78.2025 17.313C77.7885 18.081 77.2095 18.684 76.4655 19.122C75.7275 19.554 74.8725 19.77 73.9005 19.77ZM73.9005 17.484C74.6865 17.484 75.2715 17.22 75.6555 16.692C76.0455 16.158 76.2405 15.474 76.2405 14.64C76.2405 13.776 76.0425 13.086 75.6465 12.57C75.2565 12.054 74.6745 11.796 73.9005 11.796C73.3665 11.796 72.9285 11.916 72.5865 12.156C72.2445 12.396 71.9895 12.729 71.8215 13.155C71.6595 13.581 71.5785 14.076 71.5785 14.64C71.5785 15.51 71.7735 16.203 72.1635 16.719C72.5595 17.229 73.1385 17.484 73.9005 17.484ZM83.7996 19.788C83.0376 19.788 82.4166 19.659 81.9366 19.401C81.4566 19.143 81.0816 18.816 80.8116 18.42C80.5476 18.024 80.3586 17.613 80.2446 17.187C80.1306 16.755 80.0616 16.362 80.0376 16.008C80.0136 15.654 80.0016 15.396 80.0016 15.234V9.78H82.4856V14.37C82.4856 14.592 82.4976 14.877 82.5216 15.225C82.5456 15.567 82.6206 15.912 82.7466 16.26C82.8726 16.608 83.0766 16.899 83.3586 17.133C83.6466 17.367 84.0516 17.484 84.5736 17.484C84.7836 17.484 85.0086 17.451 85.2486 17.385C85.4886 17.319 85.7136 17.193 85.9236 17.007C86.1336 16.815 86.3046 16.536 86.4366 16.17C86.5746 15.798 86.6436 15.312 86.6436 14.712L88.0476 15.378C88.0476 16.146 87.8916 16.866 87.5796 17.538C87.2676 18.21 86.7966 18.753 86.1666 19.167C85.5426 19.581 84.7536 19.788 83.7996 19.788ZM86.9496 19.5V16.278H86.6436V9.78H89.1096V19.5H86.9496ZM90.995 19.5V9.78H93.155V12.156L92.921 11.85C93.047 11.514 93.215 11.208 93.425 10.932C93.635 10.656 93.893 10.428 94.199 10.248C94.433 10.104 94.688 9.993 94.964 9.915C95.24 9.831 95.525 9.78 95.819 9.762C96.113 9.738 96.407 9.744 96.701 9.78V12.066C96.431 11.982 96.116 11.955 95.756 11.985C95.402 12.009 95.081 12.09 94.793 12.228C94.505 12.36 94.262 12.537 94.064 12.759C93.866 12.975 93.716 13.233 93.614 13.533C93.512 13.827 93.461 14.16 93.461 14.532V19.5H90.995ZM100.756 19.5V6.54H108.676V8.988H103.204V11.796H107.596V14.244H103.204V19.5H100.756ZM113.926 19.77C112.93 19.77 112.051 19.557 111.289 19.131C110.533 18.699 109.939 18.108 109.507 17.358C109.081 16.602 108.868 15.738 108.868 14.766C108.868 13.704 109.078 12.78 109.498 11.994C109.918 11.208 110.497 10.599 111.235 10.167C111.973 9.729 112.822 9.51 113.782 9.51C114.802 9.51 115.669 9.75 116.383 10.23C117.097 10.71 117.625 11.385 117.967 12.255C118.309 13.125 118.429 14.148 118.327 15.324H115.906V14.424C115.906 13.434 115.747 12.723 115.429 12.291C115.117 11.853 114.604 11.634 113.89 11.634C113.056 11.634 112.441 11.889 112.045 12.399C111.655 12.903 111.46 13.65 111.46 14.64C111.46 15.546 111.655 16.248 112.045 16.746C112.441 17.238 113.02 17.484 113.782 17.484C114.262 17.484 114.673 17.379 115.015 17.169C115.357 16.959 115.618 16.656 115.798 16.26L118.246 16.962C117.88 17.85 117.301 18.54 116.509 19.032C115.723 19.524 114.862 19.77 113.926 19.77ZM110.704 15.324V13.506H117.148V15.324H110.704ZM124.247 19.77C123.251 19.77 122.372 19.557 121.61 19.131C120.854 18.699 120.26 18.108 119.828 17.358C119.402 16.602 119.189 15.738 119.189 14.766C119.189 13.704 119.399 12.78 119.819 11.994C120.239 11.208 120.818 10.599 121.556 10.167C122.294 9.729 123.143 9.51 124.103 9.51C125.123 9.51 125.99 9.75 126.704 10.23C127.418 10.71 127.946 11.385 128.288 12.255C128.63 13.125 128.75 14.148 128.648 15.324H126.227V14.424C126.227 13.434 126.068 12.723 125.75 12.291C125.438 11.853 124.925 11.634 124.211 11.634C123.377 11.634 122.762 11.889 122.366 12.399C121.976 12.903 121.781 13.65 121.781 14.64C121.781 15.546 121.976 16.248 122.366 16.746C122.762 17.238 123.341 17.484 124.103 17.484C124.583 17.484 124.994 17.379 125.336 17.169C125.678 16.959 125.939 16.656 126.119 16.26L128.567 16.962C128.201 17.85 127.622 18.54 126.83 19.032C126.044 19.524 125.183 19.77 124.247 19.77ZM121.025 15.324V13.506H127.469V15.324H121.025ZM133.992 19.77C133.098 19.77 132.315 19.545 131.643 19.095C130.971 18.645 130.446 18.033 130.068 17.259C129.696 16.485 129.51 15.612 129.51 14.64C129.51 13.65 129.699 12.771 130.077 12.003C130.461 11.229 130.998 10.62 131.688 10.176C132.378 9.732 133.188 9.51 134.118 9.51C135.042 9.51 135.819 9.735 136.449 10.185C137.079 10.635 137.556 11.247 137.88 12.021C138.204 12.795 138.366 13.668 138.366 14.64C138.366 15.612 138.201 16.485 137.871 17.259C137.547 18.033 137.061 18.645 136.413 19.095C135.765 19.545 134.958 19.77 133.992 19.77ZM134.388 17.592C134.934 17.592 135.369 17.469 135.693 17.223C136.023 16.977 136.26 16.632 136.404 16.188C136.548 15.744 136.62 15.228 136.62 14.64C136.62 14.052 136.548 13.536 136.404 13.092C136.26 12.648 136.029 12.303 135.711 12.057C135.399 11.811 134.988 11.688 134.478 11.688C133.932 11.688 133.482 11.823 133.128 12.093C132.78 12.357 132.522 12.714 132.354 13.164C132.186 13.608 132.102 14.1 132.102 14.64C132.102 15.186 132.183 15.684 132.345 16.134C132.507 16.578 132.756 16.932 133.092 17.196C133.428 17.46 133.86 17.592 134.388 17.592ZM136.62 19.5V12.84H136.314V6.54H138.78V19.5H136.62Z" fill="#0C1024"/>
</svg>
