<svg width="132" height="26" viewBox="0 0 132 26" fill="none" xmlns="http://www.w3.org/2000/svg">
<path d="M45.1612 23.9871C45.1727 23.9391 45.1861 23.8892 45.1976 23.8393C45.2418 23.6607 45.284 23.4841 45.3281 23.3018C45.3358 23.2653 45.3435 23.2269 45.3531 23.1886C45.3992 22.9928 45.4433 22.797 45.4875 22.5993C45.4913 22.5762 45.4951 22.5513 45.5009 22.5302C45.5834 22.1386 45.6583 21.7432 45.7236 21.3459C45.8445 22.2231 45.9097 23.1079 45.9097 23.9871H45.1612ZM44.4375 22.2941C44.4318 22.319 44.426 22.344 44.4222 22.3689C44.4164 22.3901 44.4126 22.4112 44.4068 22.4323C43.5834 19.9331 42.4413 17.5089 41.1725 15.2439C41.4316 15.2976 41.6946 15.3552 41.9537 15.4205C42.6217 15.5894 43.2686 15.8121 43.7868 16.1153C44.0997 16.2996 44.3607 16.5127 44.5661 16.7545C44.5891 16.8409 44.6083 16.9273 44.6295 17.0117C44.7792 17.6471 44.8464 18.2978 44.8464 18.9638C44.8483 20.0541 44.6736 21.1789 44.4375 22.2941ZM41.8981 23.9928C40.2281 23.9928 38.5601 24.0062 36.8921 24.0101C38.2031 21.3631 39.349 18.649 40.255 15.8332C41.6946 18.411 42.9557 21.1827 43.7465 24.0024C43.1304 23.9966 42.5142 23.9928 41.8981 23.9928ZM36.0111 23.3364C34.4083 20.1558 32.6386 17.0712 30.7114 14.0711C33.6405 14.1959 36.537 14.4416 39.3989 14.9118C38.5064 17.8102 37.3528 20.605 36.0111 23.3364ZM25.9108 24.0005H24.4463C26.2602 20.8814 28.0415 17.745 29.7325 14.5625C31.7019 17.6202 33.5023 20.7643 35.13 24.0101C32.0646 24.0043 28.9935 24.0005 25.9108 24.0005ZM23.5 23.4438C23.4981 23.4477 23.4962 23.4496 23.4942 23.4534C21.6765 20.3266 19.8972 17.1902 18.21 14.0135C19.4307 13.9886 20.6515 13.9694 21.8742 13.9694C22.4155 13.9694 22.9587 13.9732 23.5 13.979C24.0413 13.9732 24.5845 13.9694 25.1258 13.9694C26.3485 13.9694 27.5693 13.9886 28.79 14.0135C27.1028 17.1902 25.3235 20.3266 23.5058 23.4534C23.5038 23.4496 23.5019 23.4477 23.5 23.4438ZM21.0891 24.0005C18.0065 24.0005 14.9354 24.0043 11.87 24.0101C13.4977 20.7643 15.2981 17.6202 17.2675 14.5625C18.9585 17.745 20.7398 20.8814 22.5537 24.0005H21.0891ZM10.9889 23.3364C9.64723 20.605 8.49363 17.8102 7.60108 14.9118C10.463 14.4416 13.3595 14.1959 16.2886 14.0711C14.3614 17.0712 12.5917 20.1558 10.9889 23.3364ZM5.10194 23.9928C4.48579 23.9928 3.86964 23.9966 3.25349 24.0024C4.04431 21.1827 5.3054 18.411 6.745 15.8332C7.65098 18.649 8.79691 21.3631 10.1079 24.0101C8.43989 24.0062 6.77187 23.9928 5.10194 23.9928ZM2.57784 22.3689C2.574 22.344 2.56824 22.319 2.56248 22.2941C2.32639 21.1789 2.15172 20.0541 2.15364 18.9638C2.15364 18.2978 2.22082 17.6471 2.37054 17.0117C2.39165 16.9273 2.41085 16.8409 2.43388 16.7545C2.63926 16.5127 2.90031 16.2996 3.21318 16.1153C3.73144 15.8121 4.3783 15.5894 5.04627 15.4205C5.3054 15.3552 5.56837 15.2976 5.82749 15.2439C4.55873 17.5089 3.41665 19.9331 2.5932 22.4323C2.58744 22.4112 2.5836 22.3901 2.57784 22.3689ZM1.09026 23.9871C1.09026 23.1079 1.15552 22.2231 1.27644 21.3459C1.34171 21.7432 1.41657 22.1386 1.4991 22.5302C1.50486 22.5513 1.5087 22.5762 1.51254 22.5993C1.55669 22.797 1.60083 22.9928 1.6469 23.1886C1.6565 23.2269 1.66418 23.2653 1.67186 23.3018C1.716 23.4841 1.75823 23.6607 1.80238 23.8393C1.81389 23.8892 1.82733 23.9391 1.83885 23.9871H1.09026ZM5.69121 10.712V10.7255C5.69121 11.4203 5.79294 12.1171 5.92539 12.7774C6.01752 13.2246 6.12309 13.6527 6.22482 14.0519C5.55685 14.1824 4.79674 14.3341 4.05391 14.5721C3.76599 14.6661 3.48191 14.7736 3.2055 14.9003C3.89267 13.4262 4.72188 12.0077 5.69121 10.712ZM7.16344 8.97108C8.0368 8.23977 9.07139 7.6908 10.1808 7.27044C10.7471 7.05546 11.3325 6.87503 11.9237 6.72147C10.1002 8.66013 8.50131 10.8291 7.10586 13.0749C7.06747 12.906 7.02908 12.7332 6.99453 12.5605C6.86784 11.9424 6.77955 11.3128 6.77955 10.7255C6.77955 10.0613 6.89472 9.46247 7.16344 8.97108ZM12.6512 4.66765C12.6819 4.80585 12.7184 4.94213 12.7606 5.07073C12.7951 5.17822 12.8355 5.27803 12.8738 5.37977C12.0907 5.54484 11.2941 5.74447 10.511 6.00167C11.1943 5.51413 11.9122 5.0669 12.6512 4.66765ZM13.4343 6.72723C14.3538 8.85399 15.3749 10.9251 16.4345 12.9751C13.5956 13.0903 10.774 13.3148 7.97154 13.7486C9.53206 11.2226 11.3479 8.80217 13.4343 6.72723ZM15.6724 3.31442C15.0217 3.79429 14.4094 4.31255 13.8336 4.8404C13.8201 4.80585 13.8086 4.76938 13.7971 4.73483C13.7299 4.53136 13.6839 4.3375 13.6666 4.15899C14.3211 3.84612 14.991 3.56396 15.6724 3.31442ZM20.425 2.20305C20.6534 2.30286 20.8991 2.4545 21.1487 2.65605C21.5959 3.01307 22.0508 3.50829 22.4654 4.01119C22.6036 4.17818 22.736 4.34326 22.8647 4.50833C22.5134 4.50065 22.1602 4.49681 21.8051 4.49681C19.6611 4.49681 17.5055 4.62158 15.3826 4.92869C15.92 4.47954 16.4824 4.0515 17.066 3.67336C18.1236 2.98428 19.2484 2.45834 20.425 2.20305ZM23.0796 2.03798C23.2198 2.03798 23.3599 2.0399 23.5 2.04182C23.6401 2.0399 23.7802 2.03798 23.9204 2.03798C24.239 2.03798 24.5557 2.04758 24.8724 2.05909C24.621 2.28751 24.381 2.5332 24.1526 2.78465C23.9223 3.03994 23.7035 3.30099 23.5 3.55627C23.2965 3.30099 23.0777 3.03994 22.8474 2.78465C22.619 2.5332 22.379 2.28751 22.1276 2.05909C22.4443 2.04758 22.761 2.03798 23.0796 2.03798ZM25.8513 2.65605C26.1009 2.4545 26.3466 2.30286 26.575 2.20305C27.7516 2.45834 28.8764 2.98428 29.934 3.67336C30.5176 4.0515 31.08 4.47954 31.6174 4.92869C29.4945 4.62158 27.3389 4.49681 25.1949 4.49681C24.8398 4.49681 24.4866 4.50065 24.1353 4.50833C24.2639 4.34326 24.3964 4.17818 24.5346 4.01119C24.9492 3.50829 25.4041 3.01307 25.8513 2.65605ZM33.3334 4.15899C33.3161 4.3375 33.2701 4.53136 33.2029 4.73483C33.1914 4.76938 33.1799 4.80585 33.1664 4.8404C32.5906 4.31255 31.9783 3.79429 31.3276 3.31442C32.009 3.56396 32.6789 3.84612 33.3334 4.15899ZM24.2793 5.59474C24.5845 5.59091 24.8897 5.58707 25.1949 5.58707C27.6902 5.58707 30.1855 5.7579 32.6079 6.19554C31.7038 8.30119 30.6884 10.3627 29.6288 12.4127C28.028 10.0134 26.3082 7.68888 24.2793 5.59474ZM17.3711 12.4127C16.3116 10.3627 15.2962 8.30119 14.3921 6.19554C16.8145 5.7579 19.3098 5.58707 21.8051 5.58707C22.1103 5.58707 22.4155 5.59091 22.7207 5.59474C20.6918 7.68888 18.972 10.0134 17.3711 12.4127ZM23.5 12.8887C22.9568 12.8829 22.4155 12.8791 21.8742 12.8791C20.6937 12.8791 19.5171 12.8964 18.3424 12.9213C19.9048 10.5892 21.5671 8.3607 23.5 6.36637C25.4329 8.3607 27.0952 10.5892 28.6576 12.9213C27.4829 12.8964 26.3063 12.8791 25.1258 12.8791C24.5845 12.8791 24.0432 12.8829 23.5 12.8887ZM39.0285 13.7486C36.226 13.3148 33.4044 13.0903 30.5655 12.9751C31.6251 10.9251 32.6462 8.85399 33.5657 6.72723C35.6521 8.80217 37.4679 11.2226 39.0285 13.7486ZM34.2394 5.07073C34.2816 4.94213 34.3181 4.80585 34.3488 4.66765C35.0878 5.0669 35.8057 5.51413 36.489 6.00167C35.7059 5.74447 34.9093 5.54484 34.1262 5.37977C34.1645 5.27803 34.2048 5.17822 34.2394 5.07073ZM39.8366 8.97108C40.1053 9.46247 40.2205 10.0613 40.2205 10.7255C40.2205 11.3128 40.1322 11.9424 40.0055 12.5605C39.9709 12.7332 39.9325 12.906 39.8941 13.0749C38.4987 10.8291 36.8998 8.66013 35.0763 6.72147C35.6675 6.87503 36.2529 7.05546 36.8192 7.27044C37.9286 7.6908 38.9632 8.23977 39.8366 8.97108ZM41.0746 12.7774C41.2071 12.1171 41.3088 11.4203 41.3088 10.7255V10.712C42.2781 12.0077 43.1073 13.4262 43.7945 14.9003C43.5181 14.7736 43.234 14.6661 42.9461 14.5721C42.2033 14.3341 41.4431 14.1824 40.7752 14.0519C40.8769 13.6527 40.9825 13.2246 41.0746 12.7774ZM46.6142 20.0368C46.403 18.8122 46.0902 17.6048 45.666 16.4378C45.666 16.4359 45.666 16.4359 45.666 16.4359C45.666 16.434 45.666 16.434 45.664 16.432L45.4894 15.9579C45.4817 15.9387 45.4721 15.9234 45.4625 15.9061C45.0633 14.5529 44.4202 13.2093 43.6352 11.9559C42.8808 10.7504 41.9998 9.62946 41.0804 8.66781C40.8692 8.42788 40.6581 8.19178 40.4393 7.96144C40.4239 7.94609 40.4066 7.93265 40.3894 7.91922C39.9959 7.4739 39.5678 7.07082 39.1283 6.69268C38.6887 6.31647 38.2396 5.9652 37.8058 5.62162C37.8038 5.6197 37.8038 5.6197 37.8038 5.6197L37.8 5.61778C36.6618 4.73483 35.416 3.95744 34.1204 3.32594C34.1204 3.32594 34.1185 3.32594 34.1185 3.32402C34.1185 3.32402 34.1185 3.32402 34.1166 3.32402C32.5714 2.55816 30.936 1.9516 29.2488 1.54852C28.4714 1.35465 27.6595 1.18574 26.8322 1.1128C26.7957 1.10128 26.7593 1.09169 26.7209 1.08785L25.907 0.99955C25.9032 0.99955 25.8974 0.997629 25.8936 0.997629C25.8878 0.997629 25.884 0.999548 25.8801 0.997629C25.1565 0.934286 24.4194 0.899738 23.6766 0.899738C23.6171 0.899738 23.5595 0.899736 23.5 0.901655C23.4405 0.899736 23.3829 0.899738 23.3234 0.899738C22.5806 0.899738 21.8435 0.934286 21.1199 0.997629C21.116 0.999548 21.1122 0.997629 21.1064 0.997629C21.1026 0.997629 21.0968 0.99955 21.093 0.99955L20.2791 1.08785C20.2407 1.09169 20.2043 1.10128 20.1678 1.1128C19.3405 1.18574 18.5286 1.35465 17.7512 1.54852C16.064 1.9516 14.4286 2.55816 12.8834 3.32402C12.8815 3.32402 12.8815 3.32402 12.8815 3.32402C12.8815 3.32594 12.8796 3.32594 12.8796 3.32594C11.584 3.95744 10.3382 4.73483 9.19999 5.61778L9.19615 5.6197C9.19615 5.6197 9.19615 5.6197 9.19423 5.62162C8.76043 5.9652 8.31128 6.31647 7.87172 6.69268C7.43217 7.07082 7.00412 7.4739 6.61063 7.91922C6.59336 7.93265 6.57608 7.94609 6.56073 7.96144C6.34191 8.19178 6.13077 8.42788 5.91963 8.66781C5.0002 9.62946 4.11917 10.7504 3.36482 11.9559C2.57976 13.2093 1.93674 14.5529 1.53749 15.9061C1.5279 15.9234 1.5183 15.9387 1.51062 15.9579L1.33595 16.432C1.33403 16.434 1.33403 16.434 1.33403 16.4359C1.33403 16.4359 1.33403 16.4359 1.33403 16.4378C0.909826 17.6048 0.596955 18.8122 0.385814 20.0368C0.134364 21.3478 0 22.6837 0 24.0158C0 24.1924 0.0019204 24.3709 0.00575933 24.5475L0.021116 25.0773H2.39549C2.39933 25.0773 2.40317 25.0792 2.40893 25.0792C2.41661 25.0831 2.42428 25.085 2.43388 25.0869C2.46843 25.0946 2.5049 25.0984 2.54137 25.0984C2.54329 25.0984 2.54329 25.0984 2.54521 25.0984C2.54713 25.0984 2.54905 25.0984 2.54905 25.0984C3.39937 25.085 4.24969 25.0811 5.10194 25.0811C6.9331 25.0811 8.77195 25.1003 10.6146 25.1003H10.9889C10.9889 25.1003 10.9889 25.1003 10.9909 25.1003C14.3442 25.0946 17.7109 25.0888 21.0891 25.0888C21.8915 25.0888 22.6957 25.0888 23.5 25.0907C24.3043 25.0888 25.1085 25.0888 25.9108 25.0888C29.2891 25.0888 32.6558 25.0946 36.0091 25.1003C36.0111 25.1003 36.0111 25.1003 36.0111 25.1003H36.3854C38.228 25.1003 40.0669 25.0811 41.8981 25.0811C42.7503 25.0811 43.6006 25.085 44.451 25.0984C44.451 25.0984 44.4529 25.0984 44.4548 25.0984C44.4567 25.0984 44.4567 25.0984 44.4586 25.0984C44.4951 25.0984 44.5316 25.0946 44.5661 25.0869C44.5757 25.085 44.5834 25.0831 44.5911 25.0792C44.5968 25.0792 44.6007 25.0773 44.6045 25.0773H46.9789L46.9942 24.5475C46.9981 24.3709 47 24.1924 47 24.0158C47 22.6837 46.8656 21.3478 46.6142 20.0368Z" fill="#FFCC68"/>
<path d="M60.26 19.5V6.54H64.454C64.556 6.54 64.766 6.543 65.084 6.549C65.402 6.555 65.708 6.576 66.002 6.612C67.046 6.738 67.931 7.101 68.657 7.701C69.383 8.301 69.935 9.063 70.313 9.987C70.691 10.911 70.88 11.922 70.88 13.02C70.88 14.118 70.691 15.129 70.313 16.053C69.935 16.977 69.383 17.739 68.657 18.339C67.931 18.939 67.046 19.302 66.002 19.428C65.708 19.464 65.402 19.485 65.084 19.491C64.766 19.497 64.556 19.5 64.454 19.5H60.26ZM62.744 17.196H64.454C64.616 17.196 64.835 17.193 65.111 17.187C65.387 17.175 65.636 17.148 65.858 17.106C66.422 16.992 66.881 16.728 67.235 16.314C67.595 15.9 67.859 15.402 68.027 14.82C68.201 14.238 68.288 13.638 68.288 13.02C68.288 12.372 68.198 11.757 68.018 11.175C67.844 10.593 67.577 10.101 67.217 9.699C66.857 9.297 66.404 9.042 65.858 8.934C65.636 8.886 65.387 8.859 65.111 8.853C64.835 8.847 64.616 8.844 64.454 8.844H62.744V17.196ZM72.5893 8.43V6.27H75.0373V8.43H72.5893ZM72.5893 19.5V9.78H75.0373V19.5H72.5893ZM80.9035 19.77C79.6795 19.77 78.6895 19.494 77.9335 18.942C77.1835 18.384 76.7275 17.598 76.5655 16.584L79.0675 16.206C79.1695 16.662 79.3945 17.019 79.7425 17.277C80.0965 17.535 80.5435 17.664 81.0835 17.664C81.5275 17.664 81.8695 17.58 82.1095 17.412C82.3495 17.238 82.4695 16.998 82.4695 16.692C82.4695 16.5 82.4215 16.347 82.3255 16.233C82.2295 16.113 82.0135 15.996 81.6775 15.882C81.3475 15.768 80.8315 15.618 80.1295 15.432C79.3375 15.228 78.7045 15 78.2305 14.748C77.7565 14.496 77.4145 14.196 77.2045 13.848C76.9945 13.494 76.8895 13.068 76.8895 12.57C76.8895 11.946 77.0485 11.406 77.3665 10.95C77.6845 10.488 78.1315 10.134 78.7075 9.888C79.2895 9.636 79.9735 9.51 80.7595 9.51C81.5215 9.51 82.1965 9.627 82.7845 9.861C83.3725 10.095 83.8465 10.428 84.2065 10.86C84.5725 11.292 84.7975 11.802 84.8815 12.39L82.3795 12.84C82.3375 12.48 82.1815 12.195 81.9115 11.985C81.6415 11.775 81.2755 11.652 80.8135 11.616C80.3635 11.586 80.0005 11.646 79.7245 11.796C79.4545 11.946 79.3195 12.162 79.3195 12.444C79.3195 12.612 79.3765 12.753 79.4905 12.867C79.6105 12.981 79.8535 13.098 80.2195 13.218C80.5915 13.338 81.1555 13.494 81.9115 13.686C82.6495 13.878 83.2405 14.103 83.6845 14.361C84.1345 14.613 84.4615 14.919 84.6655 15.279C84.8695 15.633 84.9715 16.062 84.9715 16.566C84.9715 17.562 84.6115 18.345 83.8915 18.915C83.1715 19.485 82.1755 19.77 80.9035 19.77ZM90.6032 19.77C89.5952 19.77 88.7312 19.545 88.0112 19.095C87.2912 18.645 86.7392 18.033 86.3552 17.259C85.9712 16.485 85.7792 15.612 85.7792 14.64C85.7792 13.656 85.9772 12.777 86.3732 12.003C86.7752 11.229 87.3392 10.62 88.0652 10.176C88.7912 9.732 89.6492 9.51 90.6392 9.51C91.7852 9.51 92.7452 9.801 93.5192 10.383C94.2992 10.959 94.7972 11.748 95.0132 12.75L92.5652 13.398C92.4212 12.894 92.1692 12.501 91.8092 12.219C91.4552 11.937 91.0532 11.796 90.6032 11.796C90.0872 11.796 89.6642 11.922 89.3342 12.174C89.0042 12.42 88.7612 12.759 88.6052 13.191C88.4492 13.617 88.3712 14.1 88.3712 14.64C88.3712 15.486 88.5572 16.173 88.9292 16.701C89.3072 17.223 89.8652 17.484 90.6032 17.484C91.1552 17.484 91.5752 17.358 91.8632 17.106C92.1512 16.854 92.3672 16.494 92.5112 16.026L95.0132 16.548C94.7372 17.58 94.2152 18.375 93.4472 18.933C92.6792 19.491 91.7312 19.77 90.6032 19.77ZM100.294 19.77C99.3157 19.77 98.4577 19.551 97.7197 19.113C96.9817 18.675 96.4057 18.072 95.9917 17.304C95.5837 16.53 95.3797 15.642 95.3797 14.64C95.3797 13.626 95.5897 12.735 96.0097 11.967C96.4297 11.193 97.0087 10.59 97.7467 10.158C98.4847 9.726 99.3337 9.51 100.294 9.51C101.272 9.51 102.13 9.729 102.868 10.167C103.612 10.605 104.191 11.211 104.605 11.985C105.019 12.753 105.226 13.638 105.226 14.64C105.226 15.648 105.016 16.539 104.596 17.313C104.182 18.081 103.603 18.684 102.859 19.122C102.121 19.554 101.266 19.77 100.294 19.77ZM100.294 17.484C101.08 17.484 101.665 17.22 102.049 16.692C102.439 16.158 102.634 15.474 102.634 14.64C102.634 13.776 102.436 13.086 102.04 12.57C101.65 12.054 101.068 11.796 100.294 11.796C99.7597 11.796 99.3217 11.916 98.9797 12.156C98.6377 12.396 98.3827 12.729 98.2147 13.155C98.0527 13.581 97.9717 14.076 97.9717 14.64C97.9717 15.51 98.1667 16.203 98.5567 16.719C98.9527 17.229 99.5317 17.484 100.294 17.484ZM108.851 19.5L105.323 9.78H107.771L110.075 16.512L112.379 9.78H114.827L111.299 19.5H108.851ZM119.99 19.77C118.994 19.77 118.115 19.557 117.353 19.131C116.597 18.699 116.003 18.108 115.571 17.358C115.145 16.602 114.932 15.738 114.932 14.766C114.932 13.704 115.142 12.78 115.562 11.994C115.982 11.208 116.561 10.599 117.299 10.167C118.037 9.729 118.886 9.51 119.846 9.51C120.866 9.51 121.733 9.75 122.447 10.23C123.161 10.71 123.689 11.385 124.031 12.255C124.373 13.125 124.493 14.148 124.391 15.324H121.97V14.424C121.97 13.434 121.811 12.723 121.493 12.291C121.181 11.853 120.668 11.634 119.954 11.634C119.12 11.634 118.505 11.889 118.109 12.399C117.719 12.903 117.524 13.65 117.524 14.64C117.524 15.546 117.719 16.248 118.109 16.746C118.505 17.238 119.084 17.484 119.846 17.484C120.326 17.484 120.737 17.379 121.079 17.169C121.421 16.959 121.682 16.656 121.862 16.26L124.31 16.962C123.944 17.85 123.365 18.54 122.573 19.032C121.787 19.524 120.926 19.77 119.99 19.77ZM116.768 15.324V13.506H123.212V15.324H116.768ZM125.793 19.5V9.78H127.953V12.156L127.719 11.85C127.845 11.514 128.013 11.208 128.223 10.932C128.433 10.656 128.691 10.428 128.997 10.248C129.231 10.104 129.486 9.993 129.762 9.915C130.038 9.831 130.323 9.78 130.617 9.762C130.911 9.738 131.205 9.744 131.499 9.78V12.066C131.229 11.982 130.914 11.955 130.554 11.985C130.2 12.009 129.879 12.09 129.591 12.228C129.303 12.36 129.06 12.537 128.862 12.759C128.664 12.975 128.514 13.233 128.412 13.533C128.31 13.827 128.259 14.16 128.259 14.532V19.5H125.793Z" fill="#0C1024"/>
</svg>
