<svg width="327" height="169" viewBox="0 0 327 169" fill="none" xmlns="http://www.w3.org/2000/svg">
<path d="M313.707 160.373C313.787 160.04 313.88 159.693 313.96 159.346C314.267 158.106 314.56 156.88 314.867 155.613C314.92 155.36 314.973 155.093 315.04 154.826C315.36 153.466 315.667 152.106 315.973 150.733C316 150.573 316.027 150.4 316.067 150.253C316.64 147.533 317.16 144.786 317.613 142.026C318.453 148.12 318.907 154.266 318.907 160.373H313.707ZM308.68 148.613C308.64 148.786 308.6 148.96 308.573 149.133C308.533 149.28 308.507 149.426 308.467 149.573C302.747 132.213 294.813 115.373 286 99.6398C287.8 100.013 289.627 100.413 291.427 100.866C296.067 102.04 300.56 103.586 304.16 105.693C306.333 106.973 308.147 108.453 309.573 110.133C309.733 110.733 309.867 111.333 310.013 111.92C311.053 116.333 311.52 120.853 311.52 125.48C311.533 133.053 310.32 140.866 308.68 148.613ZM291.04 160.413C279.44 160.413 267.853 160.506 256.267 160.533C265.373 142.146 273.333 123.293 279.627 103.733C289.627 121.64 298.387 140.893 303.88 160.48C299.6 160.44 295.32 160.413 291.04 160.413ZM250.147 155.853C239.013 133.76 226.72 112.333 213.333 91.4931C233.68 92.3598 253.8 94.0664 273.68 97.3331C267.48 117.466 259.467 136.88 250.147 155.853ZM179.987 160.466H169.813C182.413 138.8 194.787 117.013 206.533 94.9064C220.213 116.146 232.72 137.986 244.027 160.533C222.733 160.493 201.4 160.466 179.987 160.466ZM163.24 156.6C163.227 156.626 163.213 156.64 163.2 156.666C150.573 134.946 138.213 113.16 126.493 91.0931C134.973 90.9198 143.453 90.7864 151.947 90.7864C155.707 90.7864 159.48 90.8131 163.24 90.8531C167 90.8131 170.773 90.7864 174.533 90.7864C183.027 90.7864 191.507 90.9198 199.987 91.0931C188.267 113.16 175.907 134.946 163.28 156.666C163.267 156.64 163.253 156.626 163.24 156.6ZM146.493 160.466C125.08 160.466 103.747 160.493 82.4533 160.533C93.76 137.986 106.267 116.146 119.947 94.9064C131.693 117.013 144.067 138.8 156.667 160.466H146.493ZM76.3333 155.853C67.0133 136.88 59 117.466 52.8 97.3331C72.68 94.0664 92.8 92.3598 113.147 91.4931C99.76 112.333 87.4667 133.76 76.3333 155.853ZM35.44 160.413C31.16 160.413 26.88 160.44 22.6 160.48C28.0933 140.893 36.8533 121.64 46.8533 103.733C53.1467 123.293 61.1067 142.146 70.2133 160.533C58.6267 160.506 47.04 160.413 35.44 160.413ZM17.9067 149.133C17.88 148.96 17.84 148.786 17.8 148.613C16.16 140.866 14.9467 133.053 14.96 125.48C14.96 120.853 15.4267 116.333 16.4667 111.92C16.6133 111.333 16.7467 110.733 16.9067 110.133C18.3333 108.453 20.1467 106.973 22.32 105.693C25.92 103.586 30.4133 102.04 35.0533 100.866C36.8533 100.413 38.68 100.013 40.48 99.6398C31.6667 115.373 23.7333 132.213 18.0133 149.573C17.9733 149.426 17.9467 149.28 17.9067 149.133ZM7.57334 160.373C7.57334 154.266 8.02667 148.12 8.86667 142.026C9.32 144.786 9.84001 147.533 10.4133 150.253C10.4533 150.4 10.48 150.573 10.5067 150.733C10.8133 152.106 11.12 153.466 11.44 154.826C11.5067 155.093 11.56 155.36 11.6133 155.613C11.92 156.88 12.2133 158.106 12.52 159.346C12.6 159.693 12.6933 160.04 12.7733 160.373H7.57334ZM39.5333 68.1598V68.2531C39.5333 73.0798 40.24 77.9198 41.16 82.5064C41.8 85.6131 42.5333 88.5864 43.24 91.3598C38.6 92.2664 33.32 93.3198 28.16 94.9731C26.16 95.6264 24.1867 96.3731 22.2667 97.2531C27.04 87.0131 32.8 77.1598 39.5333 68.1598ZM49.76 56.0664C55.8267 50.9864 63.0133 47.1731 70.72 44.2531C74.6533 42.7598 78.72 41.5065 82.8267 40.4398C70.16 53.9064 59.0533 68.9731 49.36 84.5731C49.0933 83.3998 48.8267 82.1998 48.5867 80.9998C47.7067 76.7064 47.0933 72.3331 47.0933 68.2531C47.0933 63.6398 47.8933 59.4798 49.76 56.0664ZM87.88 26.1731C88.0933 27.1331 88.3467 28.0798 88.64 28.9731C88.88 29.7198 89.16 30.4131 89.4267 31.1198C83.9867 32.2664 78.4533 33.6531 73.0133 35.4398C77.76 32.0531 82.7467 28.9465 87.88 26.1731ZM93.32 40.4798C99.7067 55.2531 106.8 69.6398 114.16 83.8798C94.44 84.6798 74.84 86.2398 55.3733 89.2531C66.2133 71.7064 78.8267 54.8931 93.32 40.4798ZM108.867 16.7731C104.347 20.1065 100.093 23.7065 96.0933 27.3731C96 27.1331 95.92 26.8798 95.84 26.6398C95.3733 25.2265 95.0533 23.8798 94.9333 22.6398C99.48 20.4665 104.133 18.5065 108.867 16.7731ZM141.88 9.0531C143.467 9.74643 145.173 10.7998 146.907 12.1998C150.013 14.6798 153.173 18.1198 156.053 21.6131C157.013 22.7731 157.933 23.9198 158.827 25.0665C156.387 25.0131 153.933 24.9864 151.467 24.9864C136.573 24.9864 121.6 25.8531 106.853 27.9864C110.587 24.8664 114.493 21.8931 118.547 19.2664C125.893 14.4798 133.707 10.8264 141.88 9.0531ZM160.32 7.90645C161.293 7.90645 162.267 7.91978 163.24 7.93312C164.213 7.91978 165.187 7.90645 166.16 7.90645C168.373 7.90645 170.573 7.9731 172.773 8.0531C171.027 9.63977 169.36 11.3464 167.773 13.0931C166.173 14.8664 164.653 16.6798 163.24 18.4531C161.827 16.6798 160.307 14.8664 158.707 13.0931C157.12 11.3464 155.453 9.63977 153.707 8.0531C155.907 7.9731 158.107 7.90645 160.32 7.90645ZM179.573 12.1998C181.307 10.7998 183.013 9.74643 184.6 9.0531C192.773 10.8264 200.587 14.4798 207.933 19.2664C211.987 21.8931 215.893 24.8664 219.627 27.9864C204.88 25.8531 189.907 24.9864 175.013 24.9864C172.547 24.9864 170.093 25.0131 167.653 25.0665C168.547 23.9198 169.467 22.7731 170.427 21.6131C173.307 18.1198 176.467 14.6798 179.573 12.1998ZM231.547 22.6398C231.427 23.8798 231.107 25.2265 230.64 26.6398C230.56 26.8798 230.48 27.1331 230.387 27.3731C226.387 23.7065 222.133 20.1065 217.613 16.7731C222.347 18.5065 227 20.4665 231.547 22.6398ZM168.653 32.6131C170.773 32.5864 172.893 32.5598 175.013 32.5598C192.347 32.5598 209.68 33.7464 226.507 36.7864C220.227 51.4131 213.173 65.7331 205.813 79.9731C194.693 63.3064 182.747 47.1598 168.653 32.6131ZM120.667 79.9731C113.307 65.7331 106.253 51.4131 99.9733 36.7864C116.8 33.7464 134.133 32.5598 151.467 32.5598C153.587 32.5598 155.707 32.5864 157.827 32.6131C143.733 47.1598 131.787 63.3064 120.667 79.9731ZM163.24 83.2798C159.467 83.2398 155.707 83.2131 151.947 83.2131C143.747 83.2131 135.573 83.3331 127.413 83.5064C138.267 67.3064 149.813 51.8265 163.24 37.9731C176.667 51.8265 188.213 67.3064 199.067 83.5064C190.907 83.3331 182.733 83.2131 174.533 83.2131C170.773 83.2131 167.013 83.2398 163.24 83.2798ZM271.107 89.2531C251.64 86.2398 232.04 84.6798 212.32 83.8798C219.68 69.6398 226.773 55.2531 233.16 40.4798C247.653 54.8931 260.267 71.7064 271.107 89.2531ZM237.84 28.9731C238.133 28.0798 238.387 27.1331 238.6 26.1731C243.733 28.9465 248.72 32.0531 253.467 35.4398C248.027 33.6531 242.493 32.2664 237.053 31.1198C237.32 30.4131 237.6 29.7198 237.84 28.9731ZM276.72 56.0664C278.587 59.4798 279.387 63.6398 279.387 68.2531C279.387 72.3331 278.773 76.7064 277.893 80.9998C277.653 82.1998 277.387 83.3998 277.12 84.5731C267.427 68.9731 256.32 53.9064 243.653 40.4398C247.76 41.5065 251.827 42.7598 255.76 44.2531C263.467 47.1731 270.653 50.9864 276.72 56.0664ZM285.32 82.5064C286.24 77.9198 286.947 73.0798 286.947 68.2531V68.1598C293.68 77.1598 299.44 87.0131 304.213 97.2531C302.293 96.3731 300.32 95.6264 298.32 94.9731C293.16 93.3198 287.88 92.2664 283.24 91.3598C283.947 88.5864 284.68 85.6131 285.32 82.5064ZM323.8 132.933C322.333 124.426 320.16 116.04 317.213 107.933C317.213 107.92 317.213 107.92 317.213 107.92C317.213 107.906 317.213 107.906 317.2 107.893L315.987 104.6C315.933 104.466 315.867 104.36 315.8 104.24C313.027 94.8398 308.56 85.5064 303.107 76.7998C297.867 68.4264 291.747 60.6398 285.36 53.9598C283.893 52.2931 282.427 50.6531 280.907 49.0531C280.8 48.9464 280.68 48.8531 280.56 48.7598C277.827 45.6664 274.853 42.8665 271.8 40.2398C268.747 37.6264 265.627 35.1864 262.613 32.7998C262.6 32.7865 262.6 32.7864 262.6 32.7864L262.573 32.7731C254.667 26.6398 246.013 21.2398 237.013 16.8531C237.013 16.8531 237 16.8531 237 16.8398C237 16.8398 237 16.8398 236.987 16.8398C226.253 11.5198 214.893 7.30646 203.173 4.50645C197.773 3.15979 192.133 1.98643 186.387 1.47977C186.133 1.39977 185.88 1.33311 185.613 1.30646L179.96 0.693115C179.933 0.693115 179.893 0.679764 179.867 0.679764C179.827 0.679764 179.8 0.6931 179.773 0.679764C174.747 0.239761 169.627 -0.000213623 164.467 -0.000213623C164.053 -0.000213623 163.653 -0.000244141 163.24 0.013092C162.827 -0.000244141 162.427 -0.000213623 162.013 -0.000213623C156.853 -0.000213623 151.733 0.239761 146.707 0.679764C146.68 0.6931 146.653 0.679764 146.613 0.679764C146.587 0.679764 146.547 0.693115 146.52 0.693115L140.867 1.30646C140.6 1.33311 140.347 1.39977 140.093 1.47977C134.347 1.98643 128.707 3.15979 123.307 4.50645C111.587 7.30646 100.227 11.5198 89.4933 16.8398C89.48 16.8398 89.48 16.8398 89.48 16.8398C89.48 16.8531 89.4667 16.8531 89.4667 16.8531C80.4667 21.2398 71.8133 26.6398 63.9067 32.7731L63.88 32.7864C63.88 32.7864 63.88 32.7865 63.8667 32.7998C60.8533 35.1864 57.7333 37.6264 54.68 40.2398C51.6267 42.8665 48.6533 45.6664 45.92 48.7598C45.8 48.8531 45.68 48.9464 45.5733 49.0531C44.0533 50.6531 42.5867 52.2931 41.12 53.9598C34.7333 60.6398 28.6133 68.4264 23.3733 76.7998C17.92 85.5064 13.4533 94.8398 10.68 104.24C10.6133 104.36 10.5467 104.466 10.4933 104.6L9.28001 107.893C9.26668 107.906 9.26667 107.906 9.26667 107.92C9.26667 107.92 9.26667 107.92 9.26667 107.933C6.32 116.04 4.14668 124.426 2.68001 132.933C0.933346 142.04 0 151.32 0 160.573C0 161.8 0.0133398 163.04 0.0400065 164.266L0.14668 167.946H16.64C16.6667 167.946 16.6933 167.96 16.7333 167.96C16.7867 167.986 16.84 168 16.9067 168.013C17.1467 168.066 17.4 168.093 17.6533 168.093C17.6667 168.093 17.6667 168.093 17.68 168.093C17.6933 168.093 17.7067 168.093 17.7067 168.093C23.6133 168 29.52 167.973 35.44 167.973C48.16 167.973 60.9333 168.106 73.7333 168.106H76.3333C76.3333 168.106 76.3333 168.106 76.3467 168.106C99.64 168.066 123.027 168.026 146.493 168.026C152.067 168.026 157.653 168.026 163.24 168.04C168.827 168.026 174.413 168.026 179.987 168.026C203.453 168.026 226.84 168.066 250.133 168.106C250.147 168.106 250.147 168.106 250.147 168.106H252.747C265.547 168.106 278.32 167.973 291.04 167.973C296.96 167.973 302.867 168 308.773 168.093C308.773 168.093 308.787 168.093 308.8 168.093C308.813 168.093 308.813 168.093 308.827 168.093C309.08 168.093 309.333 168.066 309.573 168.013C309.64 168 309.693 167.986 309.747 167.96C309.787 167.96 309.813 167.946 309.84 167.946H326.333L326.44 164.266C326.467 163.04 326.48 161.8 326.48 160.573C326.48 151.32 325.547 142.04 323.8 132.933Z" fill="#FFCC68"/>
</svg>
