<svg width="162" height="25" viewBox="0 0 162 25" fill="none" xmlns="http://www.w3.org/2000/svg">
<path d="M45.6612 23.4871C45.6727 23.4391 45.6861 23.3892 45.6976 23.3393C45.7418 23.1607 45.784 22.9841 45.8281 22.8018C45.8358 22.7653 45.8435 22.7269 45.8531 22.6886C45.8992 22.4928 45.9433 22.297 45.9875 22.0993C45.9913 22.0762 45.9951 22.0513 46.0009 22.0302C46.0834 21.6386 46.1583 21.2432 46.2236 20.8459C46.3445 21.7231 46.4097 22.6079 46.4097 23.4871H45.6612ZM44.9375 21.7941C44.9318 21.819 44.926 21.844 44.9222 21.8689C44.9164 21.8901 44.9126 21.9112 44.9068 21.9323C44.0834 19.4331 42.9413 17.0089 41.6725 14.7439C41.9316 14.7976 42.1946 14.8552 42.4537 14.9205C43.1217 15.0894 43.7686 15.3121 44.2868 15.6153C44.5997 15.7996 44.8607 16.0127 45.0661 16.2545C45.0891 16.3409 45.1083 16.4273 45.1295 16.5117C45.2792 17.1471 45.3464 17.7978 45.3464 18.4638C45.3483 19.5541 45.1736 20.6789 44.9375 21.7941ZM42.3981 23.4928C40.7281 23.4928 39.0601 23.5062 37.3921 23.5101C38.7031 20.8631 39.849 18.149 40.755 15.3332C42.1946 17.911 43.4557 20.6827 44.2465 23.5024C43.6304 23.4966 43.0142 23.4928 42.3981 23.4928ZM36.5111 22.8364C34.9083 19.6558 33.1386 16.5712 31.2114 13.5711C34.1405 13.6959 37.037 13.9416 39.8989 14.4118C39.0064 17.3102 37.8528 20.105 36.5111 22.8364ZM26.4108 23.5005H24.9463C26.7602 20.3814 28.5415 17.245 30.2325 14.0625C32.2019 17.1202 34.0023 20.2643 35.63 23.5101C32.5646 23.5043 29.4935 23.5005 26.4108 23.5005ZM24 22.9438C23.9981 22.9477 23.9962 22.9496 23.9942 22.9534C22.1765 19.8266 20.3972 16.6902 18.71 13.5135C19.9307 13.4886 21.1515 13.4694 22.3742 13.4694C22.9155 13.4694 23.4587 13.4732 24 13.479C24.5413 13.4732 25.0845 13.4694 25.6258 13.4694C26.8485 13.4694 28.0693 13.4886 29.29 13.5135C27.6028 16.6902 25.8235 19.8266 24.0058 22.9534C24.0038 22.9496 24.0019 22.9477 24 22.9438ZM21.5891 23.5005C18.5065 23.5005 15.4354 23.5043 12.37 23.5101C13.9977 20.2643 15.7981 17.1202 17.7675 14.0625C19.4585 17.245 21.2398 20.3814 23.0537 23.5005H21.5891ZM11.4889 22.8364C10.1472 20.105 8.99363 17.3102 8.10108 14.4118C10.963 13.9416 13.8595 13.6959 16.7886 13.5711C14.8614 16.5712 13.0917 19.6558 11.4889 22.8364ZM5.60194 23.4928C4.98579 23.4928 4.36964 23.4966 3.75349 23.5024C4.54431 20.6827 5.8054 17.911 7.245 15.3332C8.15098 18.149 9.29691 20.8631 10.6079 23.5101C8.93989 23.5062 7.27187 23.4928 5.60194 23.4928ZM3.07784 21.8689C3.074 21.844 3.06824 21.819 3.06248 21.7941C2.82639 20.6789 2.65172 19.5541 2.65364 18.4638C2.65364 17.7978 2.72082 17.1471 2.87054 16.5117C2.89165 16.4273 2.91085 16.3409 2.93388 16.2545C3.13926 16.0127 3.40031 15.7996 3.71318 15.6153C4.23144 15.3121 4.8783 15.0894 5.54627 14.9205C5.8054 14.8552 6.06837 14.7976 6.32749 14.7439C5.05873 17.0089 3.91665 19.4331 3.0932 21.9323C3.08744 21.9112 3.0836 21.8901 3.07784 21.8689ZM1.59026 23.4871C1.59026 22.6079 1.65552 21.7231 1.77644 20.8459C1.84171 21.2432 1.91657 21.6386 1.9991 22.0302C2.00486 22.0513 2.0087 22.0762 2.01254 22.0993C2.05669 22.297 2.10083 22.4928 2.1469 22.6886C2.1565 22.7269 2.16418 22.7653 2.17186 22.8018C2.216 22.9841 2.25823 23.1607 2.30238 23.3393C2.31389 23.3892 2.32733 23.4391 2.33885 23.4871H1.59026ZM6.19121 10.212V10.2255C6.19121 10.9203 6.29294 11.6171 6.42539 12.2774C6.51752 12.7246 6.62309 13.1527 6.72482 13.5519C6.05685 13.6824 5.29674 13.8341 4.55391 14.0721C4.26599 14.1661 3.98191 14.2736 3.7055 14.4003C4.39267 12.9262 5.22188 11.5077 6.19121 10.212ZM7.66344 8.47108C8.5368 7.73977 9.57139 7.1908 10.6808 6.77044C11.2471 6.55546 11.8325 6.37503 12.4237 6.22147C10.6002 8.16013 9.00131 10.3291 7.60586 12.5749C7.56747 12.406 7.52908 12.2332 7.49453 12.0605C7.36784 11.4424 7.27955 10.8128 7.27955 10.2255C7.27955 9.56134 7.39472 8.96247 7.66344 8.47108ZM13.1512 4.16765C13.1819 4.30585 13.2184 4.44213 13.2606 4.57073C13.2951 4.67822 13.3355 4.77803 13.3738 4.87977C12.5907 5.04484 11.7941 5.24447 11.011 5.50167C11.6943 5.01413 12.4122 4.5669 13.1512 4.16765ZM13.9343 6.22723C14.8538 8.35399 15.8749 10.4251 16.9345 12.4751C14.0956 12.5903 11.274 12.8148 8.47154 13.2486C10.0321 10.7226 11.8479 8.30217 13.9343 6.22723ZM16.1724 2.81442C15.5217 3.29429 14.9094 3.81255 14.3336 4.3404C14.3201 4.30585 14.3086 4.26938 14.2971 4.23483C14.2299 4.03136 14.1839 3.8375 14.1666 3.65899C14.8211 3.34612 15.491 3.06396 16.1724 2.81442ZM20.925 1.70305C21.1534 1.80286 21.3991 1.9545 21.6487 2.15605C22.0959 2.51307 22.5508 3.00829 22.9654 3.51119C23.1036 3.67818 23.236 3.84326 23.3647 4.00833C23.0134 4.00065 22.6602 3.99681 22.3051 3.99681C20.1611 3.99681 18.0055 4.12158 15.8826 4.42869C16.42 3.97954 16.9824 3.5515 17.566 3.17336C18.6236 2.48428 19.7484 1.95834 20.925 1.70305ZM23.5796 1.53798C23.7198 1.53798 23.8599 1.5399 24 1.54182C24.1401 1.5399 24.2802 1.53798 24.4204 1.53798C24.739 1.53798 25.0557 1.54758 25.3724 1.55909C25.121 1.78751 24.881 2.0332 24.6526 2.28465C24.4223 2.53994 24.2035 2.80099 24 3.05627C23.7965 2.80099 23.5777 2.53994 23.3474 2.28465C23.119 2.0332 22.879 1.78751 22.6276 1.55909C22.9443 1.54758 23.261 1.53798 23.5796 1.53798ZM26.3513 2.15605C26.6009 1.9545 26.8466 1.80286 27.075 1.70305C28.2516 1.95834 29.3764 2.48428 30.434 3.17336C31.0176 3.5515 31.58 3.97954 32.1174 4.42869C29.9945 4.12158 27.8389 3.99681 25.6949 3.99681C25.3398 3.99681 24.9866 4.00065 24.6353 4.00833C24.7639 3.84326 24.8964 3.67818 25.0346 3.51119C25.4492 3.00829 25.9041 2.51307 26.3513 2.15605ZM33.8334 3.65899C33.8161 3.8375 33.7701 4.03136 33.7029 4.23483C33.6914 4.26938 33.6799 4.30585 33.6664 4.3404C33.0906 3.81255 32.4783 3.29429 31.8276 2.81442C32.509 3.06396 33.1789 3.34612 33.8334 3.65899ZM24.7793 5.09474C25.0845 5.09091 25.3897 5.08707 25.6949 5.08707C28.1902 5.08707 30.6855 5.2579 33.1079 5.69554C32.2038 7.80119 31.1884 9.8627 30.1288 11.9127C28.528 9.51335 26.8082 7.18888 24.7793 5.09474ZM17.8711 11.9127C16.8116 9.8627 15.7962 7.80119 14.8921 5.69554C17.3145 5.2579 19.8098 5.08707 22.3051 5.08707C22.6103 5.08707 22.9155 5.09091 23.2207 5.09474C21.1918 7.18888 19.472 9.51335 17.8711 11.9127ZM24 12.3887C23.4568 12.3829 22.9155 12.3791 22.3742 12.3791C21.1937 12.3791 20.0171 12.3964 18.8424 12.4213C20.4048 10.0892 22.0671 7.8607 24 5.86637C25.9329 7.8607 27.5952 10.0892 29.1576 12.4213C27.9829 12.3964 26.8063 12.3791 25.6258 12.3791C25.0845 12.3791 24.5432 12.3829 24 12.3887ZM39.5285 13.2486C36.726 12.8148 33.9044 12.5903 31.0655 12.4751C32.1251 10.4251 33.1462 8.35399 34.0657 6.22723C36.1521 8.30217 37.9679 10.7226 39.5285 13.2486ZM34.7394 4.57073C34.7816 4.44213 34.8181 4.30585 34.8488 4.16765C35.5878 4.5669 36.3057 5.01413 36.989 5.50167C36.2059 5.24447 35.4093 5.04484 34.6262 4.87977C34.6645 4.77803 34.7048 4.67822 34.7394 4.57073ZM40.3366 8.47108C40.6053 8.96247 40.7205 9.56134 40.7205 10.2255C40.7205 10.8128 40.6322 11.4424 40.5055 12.0605C40.4709 12.2332 40.4325 12.406 40.3941 12.5749C38.9987 10.3291 37.3998 8.16013 35.5763 6.22147C36.1675 6.37503 36.7529 6.55546 37.3192 6.77044C38.4286 7.1908 39.4632 7.73977 40.3366 8.47108ZM41.5746 12.2774C41.7071 11.6171 41.8088 10.9203 41.8088 10.2255V10.212C42.7781 11.5077 43.6073 12.9262 44.2945 14.4003C44.0181 14.2736 43.734 14.1661 43.4461 14.0721C42.7033 13.8341 41.9431 13.6824 41.2752 13.5519C41.3769 13.1527 41.4825 12.7246 41.5746 12.2774ZM47.1142 19.5368C46.903 18.3122 46.5902 17.1048 46.166 15.9378C46.166 15.9359 46.166 15.9359 46.166 15.9359C46.166 15.934 46.166 15.934 46.164 15.932L45.9894 15.4579C45.9817 15.4387 45.9721 15.4234 45.9625 15.4061C45.5633 14.0529 44.9202 12.7093 44.1352 11.4559C43.3808 10.2504 42.4998 9.12946 41.5804 8.16781C41.3692 7.92788 41.1581 7.69178 40.9393 7.46144C40.9239 7.44609 40.9066 7.43265 40.8894 7.41922C40.4959 6.9739 40.0678 6.57082 39.6283 6.19268C39.1887 5.81647 38.7396 5.4652 38.3058 5.12162C38.3038 5.1197 38.3038 5.1197 38.3038 5.1197L38.3 5.11778C37.1618 4.23483 35.916 3.45744 34.6204 2.82594C34.6204 2.82594 34.6185 2.82594 34.6185 2.82402C34.6185 2.82402 34.6185 2.82402 34.6166 2.82402C33.0714 2.05816 31.436 1.4516 29.7488 1.04852C28.9714 0.854652 28.1595 0.685736 27.3322 0.612797C27.2957 0.60128 27.2593 0.591686 27.2209 0.587847L26.407 0.49955C26.4032 0.49955 26.3974 0.497629 26.3936 0.497629C26.3878 0.497629 26.384 0.499548 26.3801 0.497629C25.6565 0.434286 24.9194 0.399738 24.1766 0.399738C24.1171 0.399738 24.0595 0.399736 24 0.401655C23.9405 0.399736 23.8829 0.399738 23.8234 0.399738C23.0806 0.399738 22.3435 0.434286 21.6199 0.497629C21.616 0.499548 21.6122 0.497629 21.6064 0.497629C21.6026 0.497629 21.5968 0.49955 21.593 0.49955L20.7791 0.587847C20.7407 0.591686 20.7043 0.60128 20.6678 0.612797C19.8405 0.685736 19.0286 0.854652 18.2512 1.04852C16.564 1.4516 14.9286 2.05816 13.3834 2.82402C13.3815 2.82402 13.3815 2.82402 13.3815 2.82402C13.3815 2.82594 13.3796 2.82594 13.3796 2.82594C12.084 3.45744 10.8382 4.23483 9.69999 5.11778L9.69615 5.1197C9.69615 5.1197 9.69615 5.1197 9.69423 5.12162C9.26043 5.4652 8.81128 5.81647 8.37172 6.19268C7.93217 6.57082 7.50412 6.9739 7.11063 7.41922C7.09336 7.43265 7.07608 7.44609 7.06073 7.46144C6.84191 7.69178 6.63077 7.92788 6.41963 8.16781C5.5002 9.12946 4.61917 10.2504 3.86482 11.4559C3.07976 12.7093 2.43674 14.0529 2.03749 15.4061C2.0279 15.4234 2.0183 15.4387 2.01062 15.4579L1.83595 15.932C1.83403 15.934 1.83403 15.934 1.83403 15.9359C1.83403 15.9359 1.83403 15.9359 1.83403 15.9378C1.40983 17.1048 1.09696 18.3122 0.885814 19.5368C0.634364 20.8478 0.5 22.1837 0.5 23.5158C0.5 23.6924 0.50192 23.8709 0.505759 24.0475L0.521116 24.5773H2.89549C2.89933 24.5773 2.90317 24.5792 2.90893 24.5792C2.91661 24.5831 2.92428 24.585 2.93388 24.5869C2.96843 24.5946 3.0049 24.5984 3.04137 24.5984C3.04329 24.5984 3.04329 24.5984 3.04521 24.5984C3.04713 24.5984 3.04905 24.5984 3.04905 24.5984C3.89937 24.585 4.74969 24.5811 5.60194 24.5811C7.4331 24.5811 9.27195 24.6003 11.1146 24.6003H11.4889C11.4889 24.6003 11.4889 24.6003 11.4909 24.6003C14.8442 24.5946 18.2109 24.5888 21.5891 24.5888C22.3915 24.5888 23.1957 24.5888 24 24.5907C24.8043 24.5888 25.6085 24.5888 26.4108 24.5888C29.7891 24.5888 33.1558 24.5946 36.5091 24.6003C36.5111 24.6003 36.5111 24.6003 36.5111 24.6003H36.8854C38.728 24.6003 40.5669 24.5811 42.3981 24.5811C43.2503 24.5811 44.1006 24.585 44.951 24.5984C44.951 24.5984 44.9529 24.5984 44.9548 24.5984C44.9567 24.5984 44.9567 24.5984 44.9586 24.5984C44.9951 24.5984 45.0316 24.5946 45.0661 24.5869C45.0757 24.585 45.0834 24.5831 45.0911 24.5792C45.0968 24.5792 45.1007 24.5773 45.1045 24.5773H47.4789L47.4942 24.0475C47.4981 23.8709 47.5 23.6924 47.5 23.5158C47.5 22.1837 47.3656 20.8478 47.1142 19.5368Z" fill="#FFCC68"/>
<path d="M60.76 19V6.04H62.956L67.24 14.644L71.524 6.04H73.72V19H71.434V11.26L67.672 19H66.808L63.046 11.26V19H60.76ZM79.9903 19.27C79.0123 19.27 78.1543 19.051 77.4163 18.613C76.6783 18.175 76.1023 17.572 75.6883 16.804C75.2803 16.03 75.0763 15.142 75.0763 14.14C75.0763 13.126 75.2863 12.235 75.7063 11.467C76.1263 10.693 76.7053 10.09 77.4433 9.658C78.1813 9.226 79.0303 9.01 79.9903 9.01C80.9683 9.01 81.8263 9.229 82.5643 9.667C83.3083 10.105 83.8873 10.711 84.3013 11.485C84.7153 12.253 84.9223 13.138 84.9223 14.14C84.9223 15.148 84.7123 16.039 84.2923 16.813C83.8783 17.581 83.2993 18.184 82.5553 18.622C81.8173 19.054 80.9623 19.27 79.9903 19.27ZM79.9903 16.984C80.7763 16.984 81.3613 16.72 81.7453 16.192C82.1353 15.658 82.3303 14.974 82.3303 14.14C82.3303 13.276 82.1323 12.586 81.7363 12.07C81.3463 11.554 80.7643 11.296 79.9903 11.296C79.4563 11.296 79.0183 11.416 78.6763 11.656C78.3343 11.896 78.0793 12.229 77.9113 12.655C77.7493 13.081 77.6683 13.576 77.6683 14.14C77.6683 15.01 77.8633 15.703 78.2533 16.219C78.6493 16.729 79.2283 16.984 79.9903 16.984ZM92.8955 19V14.41C92.8955 14.188 92.8835 13.906 92.8595 13.564C92.8355 13.216 92.7605 12.868 92.6345 12.52C92.5085 12.172 92.3015 11.881 92.0135 11.647C91.7315 11.413 91.3295 11.296 90.8075 11.296C90.5975 11.296 90.3725 11.329 90.1325 11.395C89.8925 11.461 89.6675 11.59 89.4575 11.782C89.2475 11.968 89.0735 12.244 88.9355 12.61C88.8035 12.976 88.7375 13.462 88.7375 14.068L87.3335 13.402C87.3335 12.634 87.4895 11.914 87.8015 11.242C88.1135 10.57 88.5815 10.027 89.2055 9.613C89.8355 9.199 90.6275 8.992 91.5815 8.992C92.3435 8.992 92.9645 9.121 93.4445 9.379C93.9245 9.637 94.2965 9.964 94.5605 10.36C94.8305 10.756 95.0225 11.17 95.1365 11.602C95.2505 12.028 95.3195 12.418 95.3435 12.772C95.3675 13.126 95.3795 13.384 95.3795 13.546V19H92.8955ZM86.2535 19V9.28H88.4315V12.502H88.7375V19H86.2535ZM100.703 19.288C99.9408 19.288 99.3198 19.159 98.8398 18.901C98.3598 18.643 97.9848 18.316 97.7148 17.92C97.4508 17.524 97.2618 17.113 97.1478 16.687C97.0338 16.255 96.9648 15.862 96.9408 15.508C96.9168 15.154 96.9048 14.896 96.9048 14.734V9.28H99.3888V13.87C99.3888 14.092 99.4008 14.377 99.4248 14.725C99.4488 15.067 99.5238 15.412 99.6498 15.76C99.7758 16.108 99.9798 16.399 100.262 16.633C100.55 16.867 100.955 16.984 101.477 16.984C101.687 16.984 101.912 16.951 102.152 16.885C102.392 16.819 102.617 16.693 102.827 16.507C103.037 16.315 103.208 16.036 103.34 15.67C103.478 15.298 103.547 14.812 103.547 14.212L104.951 14.878C104.951 15.646 104.795 16.366 104.483 17.038C104.171 17.71 103.7 18.253 103.07 18.667C102.446 19.081 101.657 19.288 100.703 19.288ZM103.853 19V15.778H103.547V9.28H106.013V19H103.853ZM119.598 19V13.258C119.598 12.616 119.445 12.118 119.139 11.764C118.839 11.404 118.422 11.224 117.888 11.224C117.546 11.224 117.249 11.305 116.997 11.467C116.745 11.623 116.547 11.845 116.403 12.133C116.265 12.415 116.196 12.742 116.196 13.114L115.17 12.43C115.17 11.764 115.326 11.176 115.638 10.666C115.956 10.156 116.379 9.76 116.907 9.478C117.441 9.19 118.032 9.046 118.68 9.046C119.79 9.046 120.627 9.376 121.191 10.036C121.761 10.69 122.046 11.548 122.046 12.61V19H119.598ZM107.88 19V9.28H110.04V12.502H110.346V19H107.88ZM113.748 19V13.258C113.748 12.616 113.595 12.118 113.289 11.764C112.989 11.404 112.572 11.224 112.038 11.224C111.528 11.224 111.117 11.401 110.805 11.755C110.499 12.103 110.346 12.556 110.346 13.114L109.32 12.394C109.32 11.758 109.479 11.188 109.797 10.684C110.115 10.18 110.541 9.781 111.075 9.487C111.615 9.193 112.218 9.046 112.884 9.046C113.646 9.046 114.27 9.208 114.756 9.532C115.248 9.856 115.611 10.288 115.845 10.828C116.079 11.368 116.196 11.962 116.196 12.61V19H113.748ZM128.099 19.27C127.103 19.27 126.224 19.057 125.462 18.631C124.706 18.199 124.112 17.608 123.68 16.858C123.254 16.102 123.041 15.238 123.041 14.266C123.041 13.204 123.251 12.28 123.671 11.494C124.091 10.708 124.67 10.099 125.408 9.667C126.146 9.229 126.995 9.01 127.955 9.01C128.975 9.01 129.842 9.25 130.556 9.73C131.27 10.21 131.798 10.885 132.14 11.755C132.482 12.625 132.602 13.648 132.5 14.824H130.079V13.924C130.079 12.934 129.92 12.223 129.602 11.791C129.29 11.353 128.777 11.134 128.063 11.134C127.229 11.134 126.614 11.389 126.218 11.899C125.828 12.403 125.633 13.15 125.633 14.14C125.633 15.046 125.828 15.748 126.218 16.246C126.614 16.738 127.193 16.984 127.955 16.984C128.435 16.984 128.846 16.879 129.188 16.669C129.53 16.459 129.791 16.156 129.971 15.76L132.419 16.462C132.053 17.35 131.474 18.04 130.682 18.532C129.896 19.024 129.035 19.27 128.099 19.27ZM124.877 14.824V13.006H131.321V14.824H124.877ZM140.262 19V14.41C140.262 14.188 140.25 13.906 140.226 13.564C140.202 13.216 140.127 12.868 140.001 12.52C139.875 12.172 139.668 11.881 139.38 11.647C139.098 11.413 138.696 11.296 138.174 11.296C137.964 11.296 137.739 11.329 137.499 11.395C137.259 11.461 137.034 11.59 136.824 11.782C136.614 11.968 136.44 12.244 136.302 12.61C136.17 12.976 136.104 13.462 136.104 14.068L134.7 13.402C134.7 12.634 134.856 11.914 135.168 11.242C135.48 10.57 135.948 10.027 136.572 9.613C137.202 9.199 137.994 8.992 138.948 8.992C139.71 8.992 140.331 9.121 140.811 9.379C141.291 9.637 141.663 9.964 141.927 10.36C142.197 10.756 142.389 11.17 142.503 11.602C142.617 12.028 142.686 12.418 142.71 12.772C142.734 13.126 142.746 13.384 142.746 13.546V19H140.262ZM133.62 19V9.28H135.798V12.502H136.104V19H133.62ZM150.284 19C149.612 19.126 148.952 19.18 148.304 19.162C147.662 19.15 147.086 19.039 146.576 18.829C146.072 18.613 145.688 18.268 145.424 17.794C145.184 17.35 145.058 16.9 145.046 16.444C145.034 15.982 145.028 15.46 145.028 14.878V6.58H147.476V14.734C147.476 15.112 147.479 15.454 147.485 15.76C147.497 16.06 147.56 16.3 147.674 16.48C147.89 16.822 148.235 17.008 148.709 17.038C149.183 17.068 149.708 17.044 150.284 16.966V19ZM143.372 11.17V9.28H150.284V11.17H143.372ZM155.666 19.27C154.688 19.27 153.83 19.051 153.092 18.613C152.354 18.175 151.778 17.572 151.364 16.804C150.956 16.03 150.752 15.142 150.752 14.14C150.752 13.126 150.962 12.235 151.382 11.467C151.802 10.693 152.381 10.09 153.119 9.658C153.857 9.226 154.706 9.01 155.666 9.01C156.644 9.01 157.502 9.229 158.24 9.667C158.984 10.105 159.563 10.711 159.977 11.485C160.391 12.253 160.598 13.138 160.598 14.14C160.598 15.148 160.388 16.039 159.968 16.813C159.554 17.581 158.975 18.184 158.231 18.622C157.493 19.054 156.638 19.27 155.666 19.27ZM155.666 16.984C156.452 16.984 157.037 16.72 157.421 16.192C157.811 15.658 158.006 14.974 158.006 14.14C158.006 13.276 157.808 12.586 157.412 12.07C157.022 11.554 156.44 11.296 155.666 11.296C155.132 11.296 154.694 11.416 154.352 11.656C154.01 11.896 153.755 12.229 153.587 12.655C153.425 13.081 153.344 13.576 153.344 14.14C153.344 15.01 153.539 15.703 153.929 16.219C154.325 16.729 154.904 16.984 155.666 16.984Z" fill="#0C1024"/>
</svg>
