<svg width="23" height="22" viewBox="0 0 23 22" fill="none" xmlns="http://www.w3.org/2000/svg">
<path d="M16.8167 1.92501L7.71417 4.20751C6.385 4.53751 5.0375 5.88501 4.7075 7.21417L2.425 16.3167C1.7375 19.0667 3.42417 20.7625 6.18334 20.075L15.2858 17.8017C16.6058 17.4717 17.9625 16.115 18.2925 14.795L20.575 5.68334C21.2625 2.93334 19.5667 1.23751 16.8167 1.92501Z" stroke="#838B98" stroke-width="1.5" stroke-linecap="round" stroke-linejoin="round"/>
<path d="M11.5 14.2083C13.2719 14.2083 14.7083 12.7719 14.7083 11C14.7083 9.22809 13.2719 7.79167 11.5 7.79167C9.72805 7.79167 8.29163 9.22809 8.29163 11C8.29163 12.7719 9.72805 14.2083 11.5 14.2083Z" stroke="#838B98" stroke-width="1.5" stroke-linecap="round" stroke-linejoin="round"/>
</svg>
