<svg width="24" height="24" viewBox="0 0 24 24" fill="none" xmlns="http://www.w3.org/2000/svg">
<path d="M21 11.5C21.0035 12.8199 20.6951 14.1219 20.1 15.3C19.3945 16.7118 18.3098 17.8992 16.9675 18.7293C15.6252 19.5594 14.0783 19.9994 12.5 20C11.1802 20.0035 9.87814 19.6951 8.70003 19.1L4.20002 19.8L4.90003 15.3C4.30496 14.1219 3.99659 12.8199 4.00003 11.5C4.00064 9.92179 4.44064 8.37488 5.27075 7.03258C6.10085 5.69028 7.28828 4.6056 8.70003 3.90003C9.87814 3.30496 11.1802 2.99659 12.5 3.00003H13C15.0844 3.11502 17.0531 3.99479 18.5292 5.47089C20.0053 6.94699 20.885 8.91568 21 11V11.5Z" stroke="#5D6778" stroke-width="1.75" stroke-linecap="round" stroke-linejoin="round"/>
</svg>
