<svg width="22" height="22" viewBox="0 0 22 22" fill="none" xmlns="http://www.w3.org/2000/svg">
<path d="M16.3167 1.92496L7.21417 4.20746C5.885 4.53746 4.5375 5.88496 4.2075 7.21413L1.925 16.3166C1.2375 19.0666 2.92417 20.7625 5.68334 20.075L14.7858 17.8016C16.1058 17.4716 17.4625 16.115 17.7925 14.795L20.075 5.68329C20.7625 2.93329 19.0667 1.23746 16.3167 1.92496Z" stroke="#838B98" stroke-width="1.5" stroke-linecap="round" stroke-linejoin="round"/>
<path d="M11 14.2084C12.7719 14.2084 14.2083 12.772 14.2083 11.0001C14.2083 9.22817 12.7719 7.79175 11 7.79175C9.22805 7.79175 7.79163 9.22817 7.79163 11.0001C7.79163 12.772 9.22805 14.2084 11 14.2084Z" stroke="#838B98" stroke-width="1.5" stroke-linecap="round" stroke-linejoin="round"/>
</svg>
