<svg width="22" height="22" viewBox="0 0 22 22" fill="none" xmlns="http://www.w3.org/2000/svg">
<g clip-path="url(#clip0_38_187)">
<path d="M11 13.75C12.5188 13.75 13.75 12.5188 13.75 11C13.75 9.48122 12.5188 8.25 11 8.25C9.48122 8.25 8.25 9.48122 8.25 11C8.25 12.5188 9.48122 13.75 11 13.75Z" stroke="#838B98" stroke-width="1.75" stroke-linecap="round" stroke-linejoin="round"/>
<path d="M17.7833 13.7501C17.6613 14.0266 17.6249 14.3333 17.6788 14.6306C17.7327 14.928 17.8745 15.2024 18.0858 15.4184L18.1408 15.4734C18.3112 15.6437 18.4465 15.8459 18.5387 16.0684C18.631 16.291 18.6785 16.5296 18.6785 16.7705C18.6785 17.0114 18.631 17.25 18.5387 17.4726C18.4465 17.6951 18.3112 17.8973 18.1408 18.0676C17.9705 18.238 17.7683 18.3733 17.5458 18.4655C17.3232 18.5578 17.0846 18.6053 16.8437 18.6053C16.6028 18.6053 16.3642 18.5578 16.1417 18.4655C15.9191 18.3733 15.7169 18.238 15.5466 18.0676L15.4916 18.0126C15.2756 17.8013 15.0012 17.6595 14.7038 17.6056C14.4065 17.5517 14.0998 17.5881 13.8233 17.7101C13.5522 17.8263 13.3209 18.0192 13.1581 18.2652C12.9952 18.5111 12.9078 18.7993 12.9066 19.0942V19.2501C12.9066 19.7363 12.7135 20.2026 12.3697 20.5464C12.0258 20.8903 11.5595 21.0834 11.0733 21.0834C10.5871 21.0834 10.1207 20.8903 9.77693 20.5464C9.43311 20.2026 9.23996 19.7363 9.23996 19.2501V19.1676C9.23286 18.8642 9.13465 18.5699 8.95809 18.3231C8.78154 18.0762 8.5348 17.8882 8.24996 17.7834C7.97348 17.6614 7.66678 17.625 7.36942 17.6789C7.07206 17.7328 6.79766 17.8746 6.58163 18.0859L6.52663 18.1409C6.35636 18.3114 6.15416 18.4466 5.9316 18.5389C5.70904 18.6311 5.47047 18.6786 5.22954 18.6786C4.98861 18.6786 4.75005 18.6311 4.52749 18.5389C4.30492 18.4466 4.10273 18.3114 3.93246 18.1409C3.762 17.9706 3.62678 17.7685 3.53452 17.5459C3.44226 17.3233 3.39477 17.0848 3.39477 16.8438C3.39477 16.6029 3.44226 16.3643 3.53452 16.1418C3.62678 15.9192 3.762 15.717 3.93246 15.5467L3.98746 15.4917C4.19878 15.2757 4.34055 15.0013 4.39446 14.704C4.44838 14.4066 4.41198 14.0999 4.28996 13.8234C4.17376 13.5523 3.98082 13.3211 3.73489 13.1582C3.48895 12.9953 3.20076 12.9079 2.90579 12.9067H2.74996C2.26373 12.9067 1.79741 12.7136 1.4536 12.3698C1.10978 12.026 0.916626 11.5596 0.916626 11.0734C0.916626 10.5872 1.10978 10.1209 1.4536 9.77705C1.79741 9.43324 2.26373 9.24008 2.74996 9.24008H2.83246C3.13587 9.23298 3.43013 9.13477 3.67698 8.95822C3.92384 8.78166 4.11187 8.53492 4.21663 8.25008C4.33865 7.9736 4.37505 7.6669 4.32113 7.36954C4.26721 7.07218 4.12545 6.79779 3.91413 6.58175L3.85913 6.52675C3.68867 6.35648 3.55344 6.15428 3.46118 5.93172C3.36892 5.70916 3.32143 5.47059 3.32143 5.22966C3.32143 4.98874 3.36892 4.75017 3.46118 4.52761C3.55344 4.30504 3.68867 4.10285 3.85913 3.93258C4.02939 3.76212 4.23159 3.6269 4.45415 3.53464C4.67672 3.44238 4.91528 3.39489 5.15621 3.39489C5.39714 3.39489 5.6357 3.44238 5.85827 3.53464C6.08083 3.6269 6.28303 3.76212 6.45329 3.93258L6.50829 3.98758C6.72433 4.19891 6.99872 4.34067 7.29609 4.39459C7.59345 4.4485 7.90014 4.4121 8.17663 4.29008H8.24996C8.52108 4.17388 8.75231 3.98094 8.91518 3.73501C9.07805 3.48908 9.16545 3.20089 9.16663 2.90591V2.75008C9.16663 2.26385 9.35978 1.79754 9.7036 1.45372C10.0474 1.1099 10.5137 0.916748 11 0.916748C11.4862 0.916748 11.9525 1.1099 12.2963 1.45372C12.6401 1.79754 12.8333 2.26385 12.8333 2.75008V2.83258C12.8345 3.12755 12.9219 3.41574 13.0847 3.66167C13.2476 3.90761 13.4788 4.10055 13.75 4.21675C14.0264 4.33877 14.3331 4.37517 14.6305 4.32125C14.9279 4.26733 15.2023 4.12557 15.4183 3.91425L15.4733 3.85925C15.6436 3.68879 15.8458 3.55357 16.0683 3.46131C16.2909 3.36904 16.5294 3.32156 16.7704 3.32156C17.0113 3.32156 17.2499 3.36904 17.4724 3.46131C17.695 3.55357 17.8972 3.68879 18.0675 3.85925C18.2379 4.02952 18.3731 4.23171 18.4654 4.45427C18.5577 4.67684 18.6052 4.9154 18.6052 5.15633C18.6052 5.39726 18.5577 5.63583 18.4654 5.85839C18.3731 6.08095 18.2379 6.28315 18.0675 6.45341L18.0125 6.50841C17.8011 6.72445 17.6594 6.99885 17.6055 7.29621C17.5515 7.59357 17.5879 7.90027 17.71 8.17675V8.25008C17.8262 8.5212 18.0191 8.75243 18.265 8.9153C18.511 9.07817 18.7992 9.16557 19.0941 9.16675H19.25C19.7362 9.16675 20.2025 9.3599 20.5463 9.70372C20.8901 10.0475 21.0833 10.5139 21.0833 11.0001C21.0833 11.4863 20.8901 11.9526 20.5463 12.2964C20.2025 12.6403 19.7362 12.8334 19.25 12.8334H19.1675C18.8725 12.8346 18.5843 12.922 18.3384 13.0849C18.0924 13.2477 17.8995 13.479 17.7833 13.7501Z" stroke="#838B98" stroke-width="1.75" stroke-linecap="round" stroke-linejoin="round"/>
</g>
<defs>
<clipPath id="clip0_38_187">
<rect width="22" height="22" fill="white"/>
</clipPath>
</defs>
</svg>
