<svg width="20" height="20" viewBox="0 0 20 20" fill="none" xmlns="http://www.w3.org/2000/svg">
<path d="M9.99992 10C12.3011 10 14.1666 8.13452 14.1666 5.83333C14.1666 3.53215 12.3011 1.66667 9.99992 1.66667C7.69873 1.66667 5.83325 3.53215 5.83325 5.83333C5.83325 8.13452 7.69873 10 9.99992 10Z" stroke="#5D6778" stroke-width="1.5" stroke-linecap="round" stroke-linejoin="round"/>
<path d="M16.0083 13.1167L13.0583 16.0667C12.9416 16.1834 12.8333 16.4 12.8083 16.5584L12.6499 17.6833C12.5916 18.0917 12.875 18.375 13.2833 18.3167L14.4083 18.1583C14.5666 18.1333 14.7916 18.025 14.9 17.9084L17.8499 14.9584C18.3583 14.45 18.5999 13.8583 17.8499 13.1083C17.1083 12.3667 16.5166 12.6083 16.0083 13.1167Z" stroke="#5D6778" stroke-width="1.5" stroke-miterlimit="10" stroke-linecap="round" stroke-linejoin="round"/>
<path d="M15.5833 13.5417C15.8333 14.4417 16.5332 15.1416 17.4332 15.3916" stroke="#5D6778" stroke-width="1.5" stroke-miterlimit="10" stroke-linecap="round" stroke-linejoin="round"/>
<path d="M2.84155 18.3333C2.84155 15.1083 6.04991 12.5 9.99991 12.5C10.8666 12.5 11.6999 12.625 12.4749 12.8583" stroke="#5D6778" stroke-width="1.5" stroke-linecap="round" stroke-linejoin="round"/>
</svg>
